<?xml version="1.0" encoding="UTF-8"?>
<svg enable-background="new 0 0 1054.1 495.8" version="1.1" viewBox="0 0 1054.1 495.8" xml:space="preserve" xmlns="http://www.w3.org/2000/svg">

	<path d="m936 126.2c-1.8 7.5 1.4 15.2 7.9 19.3 2.3 1.5 4.8 2.3 7.5 2.7 0.7 0.1 1.4 0.1 2 0.1 4.1 0 8.1-1.4 11.3-4h0.1c0.3 0.1 0.5 0.2 0.8 0.3 1.7 0.6 3.3 0.9 4.6 1.1 0.5 0.1 0.9 0.1 1.4 0.1 1.9 0 3.1-0.5 3.8-1.6 1.3-2.1-0.2-5.3-4.5-9.7 0.6-2.7 0.7-5.5 0-8.1-1.1-4.7-3.9-8.7-7.9-11.2-2.3-1.5-4.8-2.3-7.5-2.7-0.7-0.1-1.4-0.1-2-0.1-4.1 0-8.1 1.4-11.3 4-2.8-1-5.1-1.5-6.9-1.5s-3.1 0.5-3.8 1.6c-1.6 2.6 1.5 6.7 4.5 9.7zm37.6 16.9c-0.1 0.2-0.5 0.6-2 0.6-1.3 0-3-0.3-5.1-1 0.8-0.9 1.5-1.8 2.1-2.7 0.6-1 1.1-2 1.6-3.1 3.5 3.7 3.8 5.7 3.4 6.2zm-38.3-26c1.3 0 3.1 0.3 5.1 1-0.8 0.8-1.5 1.8-2.1 2.7-0.6 1-1.1 2-1.6 3.1-3.2-3.5-3.9-5.5-3.4-6.3 0.2-0.3 1-0.5 2-0.5zm4.8 4.9c2.9-4.6 8-7.4 13.4-7.4 0.6 0 1.2 0 1.8 0.1 2.4 0.3 4.6 1.1 6.6 2.3 3.6 2.3 6.1 5.8 7 9.9s0.2 8.4-2 11.9c-0.7 1.1-1.6 2.2-2.6 3.1-4.2-1.6-8.9-4-13.7-7s-9-6.2-12.2-9.3c0.4-1.3 1-2.5 1.7-3.6zm-2.3 6c3.2 2.9 7.3 6 11.6 8.7 4.4 2.8 8.9 5.1 12.9 6.7-2.6 1.8-5.8 2.8-8.9 2.8-0.6 0-1.2 0-1.8-0.1-2.4-0.3-4.6-1.1-6.6-2.3-5.3-3.3-8.1-9.6-7.2-15.8z" fill="#CDCCCC"/>

<path d="m39.3 466.6c0.3-0.3 0.5-0.6 0.7-0.9 0.2 0.3 0.5 0.6 0.8 0.9s0.7 0.6 1 0.8c-0.4 0.2-0.7 0.5-1 0.8s-0.5 0.6-0.7 0.8c-0.2-0.3-0.4-0.6-0.7-0.8-0.3-0.3-0.7-0.6-1.1-0.9 0.3-0.1 0.7-0.3 1-0.7zm-3.6 1.8s1.4 0.6 2.2 1.4c0.6 0.6 1 1.6 1.2 2s0.5 0.7 1 0.7c0.4 0 0.8-0.3 1-0.7 0 0 0.4-1.2 1.2-2 0.6-0.6 1.8-1.2 2.2-1.4s0.7-0.6 0.6-1c0-0.4-0.3-0.8-0.7-1 0 0-1.2-0.4-2.1-1.3-0.6-0.6-1.1-1.7-1.2-2-0.1-0.4-0.5-0.7-1-0.7-0.4 0-0.8 0.2-1 0.6s-0.7 1.5-1.3 2.1c-0.8 0.8-2.1 1.3-2.1 1.3-0.4 0.2-0.7 0.5-0.7 1s0.3 0.9 0.7 1z" fill="#CDCCCC"/>
<path d="m25.8 489.9c-0.5 0.5-0.8 1-1.1 1.5-0.3-0.5-0.7-1-1.1-1.4-0.5-0.5-1.2-1-1.8-1.4 0.5-0.3 1.1-0.8 1.6-1.3 0.4-0.5 0.9-1 1.2-1.6 0.3 0.5 0.7 1.1 1.2 1.6s1.1 1 1.7 1.3c-0.6 0.3-1.2 0.8-1.7 1.3zm4.4-2.3s-1.6-0.6-2.8-1.8c-1-1-1.7-2.7-1.7-2.8-0.1-0.4-0.5-0.7-1-0.7-0.4 0-0.8 0.2-1 0.6-0.2 0.5-0.9 2-1.7 2.8-1.1 1.1-2.8 1.8-2.8 1.8-0.4 0.2-0.7 0.5-0.7 1 0 0.4 0.3 0.8 0.7 1 0 0 1.9 0.7 3 1.8 0.8 0.8 1.4 2.2 1.6 2.7 0.2 0.4 0.5 0.7 1 0.7 0.4 0 0.8-0.3 1-0.7 0 0 0.6-1.6 1.6-2.7 1-1 2.9-1.8 2.9-1.8 0.4-0.2 0.7-0.6 0.7-1-0.1-0.4-0.4-0.8-0.8-0.9z" fill="#CDCCCC"/>
<path d="m727.8 136.6c0.2-0.2 0.5-0.5 0.7-0.8 0.2 0.3 0.4 0.6 0.7 0.8 0.3 0.3 0.6 0.5 0.9 0.7-0.3 0.2-0.6 0.5-0.9 0.7-0.2 0.2-0.4 0.5-0.6 0.7-0.2-0.3-0.4-0.5-0.6-0.7-0.3-0.3-0.6-0.5-1-0.8 0.3-0.1 0.6-0.4 0.8-0.6zm-3.1 1.6s1.2 0.5 2 1.2c0.5 0.5 0.9 1.4 1 1.8s0.5 0.6 0.9 0.6 0.7-0.3 0.9-0.6c0 0 0.4-1.1 1.1-1.8 0.6-0.6 1.6-1.1 1.9-1.2 0.4-0.1 0.6-0.5 0.6-0.9s-0.3-0.7-0.6-0.9c0 0-1.1-0.4-1.9-1.2-0.5-0.5-1-1.5-1.1-1.8-0.1-0.4-0.5-0.6-0.9-0.6s-0.7 0.2-0.9 0.6c-0.1 0.3-0.6 1.3-1.1 1.8-0.7 0.7-1.8 1.2-1.9 1.2-0.4 0.1-0.6 0.5-0.6 0.9s0.2 0.7 0.6 0.9z" fill="#CDCCCC"/>
<path d="m794.7 113.2c-0.4 0.4-0.7 0.9-1 1.3-0.3-0.4-0.6-0.9-1-1.3-0.5-0.5-1-0.9-1.6-1.2 0.5-0.3 1-0.7 1.4-1.1s0.8-0.9 1.1-1.4c0.3 0.5 0.6 1 1.1 1.4 0.5 0.5 1 0.9 1.5 1.2-0.5 0.3-1 0.6-1.5 1.1zm3.9-2.1s-1.4-0.5-2.5-1.6c-0.9-0.9-1.5-2.4-1.5-2.4-0.1-0.4-0.5-0.6-0.8-0.6-0.4 0-0.7 0.2-0.9 0.6-0.2 0.5-0.8 1.8-1.5 2.5-1 1-2.5 1.6-2.5 1.6-0.4 0.1-0.6 0.5-0.6 0.9s0.2 0.7 0.6 0.9c0 0 1.7 0.7 2.6 1.6 0.7 0.7 1.2 2 1.4 2.4 0.1 0.4 0.5 0.6 0.9 0.6s0.7-0.3 0.9-0.6c0 0 0.5-1.4 1.4-2.4 0.9-0.9 2.6-1.6 2.6-1.6 0.4-0.1 0.6-0.5 0.6-0.9-0.1-0.5-0.4-0.8-0.7-1z" fill="#CDCCCC"/>
<path d="m759.7 155.8-0.4 0.4c-0.1-0.1-0.2-0.3-0.3-0.4-0.2-0.2-0.4-0.3-0.6-0.5 0.2-0.1 0.3-0.3 0.5-0.4 0.1-0.1 0.3-0.3 0.4-0.5 0.1 0.2 0.3 0.3 0.4 0.5l0.5 0.5c-0.1 0.1-0.3 0.3-0.5 0.4zm2.8-1.3s-0.8-0.3-1.4-0.9c-0.4-0.4-0.7-1.1-0.8-1.4-0.1-0.4-0.5-0.6-0.9-0.6s-0.7 0.2-0.9 0.6c-0.1 0.3-0.5 1-0.9 1.4-0.6 0.6-1.4 0.9-1.4 0.9-0.4 0.1-0.6 0.5-0.6 0.9s0.2 0.7 0.6 0.9c0.3 0.1 1 0.5 1.5 0.9 0.4 0.4 0.7 1.1 0.8 1.3 0.1 0.4 0.5 0.6 0.9 0.6s0.7-0.3 0.9-0.6c0.1-0.2 0.4-0.9 0.8-1.3s1.2-0.8 1.5-0.9c0.4-0.1 0.6-0.5 0.6-0.9-0.1-0.4-0.4-0.8-0.7-0.9z" fill="#CDCCCC"/>
<path d="m3.8 107.9c0.2-0.2 0.5-0.5 0.7-0.8 0.2 0.3 0.4 0.6 0.7 0.8 0.3 0.3 0.6 0.5 0.9 0.7-0.3 0.2-0.6 0.5-0.9 0.7-0.2 0.2-0.4 0.5-0.6 0.7-0.2-0.3-0.4-0.5-0.6-0.7-0.3-0.3-0.6-0.5-1-0.8 0.2-0.1 0.5-0.4 0.8-0.6zm-3.2 1.5s1.2 0.5 1.9 1.2c0.5 0.5 0.9 1.4 1 1.8s0.5 0.6 0.9 0.6 0.7-0.3 0.9-0.6c0 0 0.4-1.1 1.1-1.7 0.6-0.6 1.6-1 1.9-1.2 0.4-0.1 0.6-0.5 0.6-0.9s-0.3-0.7-0.6-0.8c0 0-1.1-0.4-1.8-1.2-0.5-0.5-1-1.5-1.1-1.8-0.1-0.4-0.5-0.6-0.9-0.6s-0.7 0.2-0.9 0.6c-0.2 0.2-0.6 1.2-1.2 1.7-0.7 0.7-1.8 1.2-1.8 1.2-0.4 0.1-0.6 0.5-0.6 0.9s0.2 0.7 0.6 0.8z" fill="#CDCCCC"/>
<path d="m19.5 116.8c-0.4 0.4-0.7 0.9-1 1.3-0.3-0.4-0.6-0.9-1-1.3-0.5-0.5-1-0.9-1.6-1.2 0.5-0.3 1-0.7 1.4-1.1s0.8-0.9 1.1-1.4c0.3 0.5 0.6 1 1.1 1.4 0.5 0.5 1 0.9 1.5 1.1-0.5 0.3-1 0.7-1.5 1.2zm3.9-2.1s-1.4-0.5-2.5-1.6c-0.9-0.9-1.5-2.4-1.5-2.4-0.1-0.4-0.5-0.6-0.8-0.6-0.4 0-0.7 0.2-0.9 0.6-0.2 0.5-0.8 1.8-1.5 2.5-1 1-2.5 1.6-2.5 1.6-0.4 0.1-0.6 0.5-0.6 0.9s0.2 0.7 0.6 0.9c0 0 1.7 0.7 2.6 1.6 0.7 0.7 1.2 1.9 1.4 2.4 0.1 0.4 0.5 0.6 0.9 0.6s0.7-0.3 0.9-0.6c0 0 0.5-1.4 1.4-2.4 0.9-0.9 2.6-1.6 2.6-1.6 0.4-0.1 0.6-0.5 0.6-0.9-0.1-0.5-0.4-0.9-0.7-1z" fill="#CDCCCC"/>
<path d="m10.3 128.6-0.4 0.4c-0.1-0.1-0.2-0.3-0.3-0.4-0.2-0.2-0.4-0.3-0.6-0.5 0.2-0.1 0.3-0.3 0.5-0.4 0.1-0.1 0.3-0.3 0.4-0.5 0.1 0.2 0.3 0.3 0.4 0.5l0.5 0.5c-0.1 0.1-0.3 0.2-0.5 0.4zm2.8-1.4s-0.8-0.3-1.4-0.9c-0.4-0.4-0.7-1.1-0.8-1.4-0.1-0.4-0.5-0.6-0.9-0.6s-0.7 0.2-0.9 0.6c-0.1 0.3-0.5 1-0.9 1.4-0.6 0.6-1.4 0.9-1.4 0.9-0.4 0.1-0.6 0.5-0.6 0.9s0.2 0.7 0.6 0.9c0.3 0.1 1 0.5 1.5 0.9 0.4 0.4 0.7 1.1 0.8 1.3 0.1 0.4 0.5 0.6 0.9 0.6s0.7-0.3 0.9-0.6c0.1-0.2 0.4-0.9 0.8-1.3s1.2-0.8 1.5-0.9c0.4-0.1 0.6-0.5 0.6-0.9-0.1-0.4-0.4-0.7-0.7-0.9z" fill="#CDCCCC"/>
<path d="m903.2 117.4c-0.4 0-0.7 0.1-1.1 0.1 0.1-0.4 0.1-0.7 0.1-1.1s0-0.8-0.1-1.2c0.4 0.1 0.8 0.1 1.2 0.1s0.7 0 1-0.1c-0.1 0.3-0.1 0.7-0.1 1 0 0.4 0.1 0.9 0.1 1.3-0.3 0-0.7-0.1-1.1-0.1zm3.6 1.2s-0.6-1.3-0.6-2.4c0-0.7 0.4-1.8 0.6-2.1 0.2-0.4 0.1-0.8-0.2-1.1s-0.8-0.4-1.1-0.2c0 0-1.1 0.5-2.1 0.5-0.9 0-2-0.4-2.4-0.6s-0.8-0.1-1.1 0.2-0.4 0.8-0.2 1.1c0 0 0.5 1.1 0.5 2.3 0 0.8-0.4 1.9-0.5 2.2-0.2 0.4-0.1 0.8 0.2 1.1s0.7 0.4 1.1 0.2c0.4-0.1 1.5-0.5 2.3-0.5 1.1 0 2.3 0.5 2.3 0.5 0.4 0.2 0.8 0.1 1.1-0.2 0.2-0.2 0.3-0.6 0.1-1z" fill="#CDCCCC"/>
<path d="m898 98.7c0.6 0 1.2-0.1 1.7-0.2-0.1 0.5-0.2 1.1-0.2 1.7 0 0.7 0.1 1.4 0.3 2.1-0.6-0.1-1.3-0.2-1.9-0.2s-1.3 0.1-1.9 0.2c0.1-0.6 0.2-1.2 0.2-1.9s-0.1-1.4-0.2-2c0.6 0.2 1.3 0.3 2 0.3zm-4.5-1.4s0.7 1.5 0.7 3.1c0 1.4-0.7 3-0.7 3-0.2 0.4-0.1 0.8 0.2 1.1s0.7 0.4 1.1 0.2c0.5-0.2 2-0.7 3-0.7 1.5 0 3.1 0.7 3.1 0.7 0.4 0.2 0.8 0.1 1.1-0.2s0.4-0.7 0.2-1.1c0 0-0.8-1.7-0.8-3.2 0-1 0.5-2.4 0.8-2.9 0.2-0.4 0.1-0.8-0.2-1.1s-0.8-0.4-1.1-0.2c0 0-1.5 0.7-2.9 0.7s-3.2-0.7-3.2-0.7c-0.4-0.2-0.8-0.1-1.1 0.2s-0.4 0.7-0.2 1.1z" fill="#CDCCCC"/>
<path d="m914 96.7h0.6v0.6c0 0.3 0 0.5 0.1 0.8-0.2 0-0.5-0.1-0.7-0.1s-0.4 0-0.7 0.1c0-0.2 0-0.4 0.1-0.7 0-0.3 0-0.5-0.1-0.7 0.2-0.1 0.4 0 0.7 0zm-3.1-1.1s0.4 0.8 0.4 1.7c0 0.6-0.3 1.4-0.4 1.7-0.2 0.4-0.1 0.8 0.2 1.1s0.7 0.4 1.1 0.2c0.3-0.1 1.1-0.4 1.7-0.4 0.9 0 1.7 0.4 1.7 0.4 0.4 0.2 0.8 0.1 1.1-0.2s0.4-0.7 0.2-1.1c-0.1-0.3-0.4-1.1-0.4-1.8 0-0.6 0.3-1.4 0.4-1.6 0.2-0.4 0.1-0.8-0.2-1.1s-0.8-0.4-1.1-0.2c-0.2 0.1-1 0.4-1.6 0.4s-1.5-0.3-1.8-0.4c-0.4-0.2-0.8-0.1-1.1 0.2-0.4 0.3-0.4 0.7-0.2 1.1z" fill="#CDCCCC"/>
<path d="m139.6 292c-0.3 0.2-0.7 0.5-1 0.8-0.2 0.2-0.4 0.5-0.6 0.7-0.2-0.3-0.4-0.5-0.6-0.8-0.3-0.3-0.6-0.5-0.9-0.7 0.3-0.2 0.6-0.5 0.9-0.7 0.3-0.3 0.5-0.5 0.7-0.8 0.2 0.3 0.4 0.6 0.7 0.8 0.2 0.2 0.5 0.5 0.8 0.7zm2.9 0c0-0.4-0.2-0.7-0.6-0.9 0 0-1.1-0.4-1.9-1.2-0.5-0.5-1-1.5-1.1-1.9-0.2-0.4-0.5-0.6-0.9-0.6s-0.7 0.3-0.9 0.6c-0.1 0.3-0.5 1.3-1.1 1.8-0.8 0.8-1.9 1.2-1.9 1.2-0.4 0.1-0.6 0.5-0.6 0.9s0.2 0.8 0.6 0.9 1.4 0.6 1.9 1.2c0.7 0.7 1.1 1.8 1.1 1.8 0.1 0.4 0.5 0.6 0.9 0.6s0.7-0.2 0.9-0.6c0.1-0.3 0.5-1.3 1-1.8 0.7-0.7 2-1.2 2-1.2 0.4-0.1 0.6-0.4 0.6-0.8z" fill="#CDCCCC"/>
<path d="m121.2 299.1c0.5-0.3 1-0.7 1.5-1.2 0.4-0.4 0.8-0.9 1.1-1.4 0.3 0.5 0.7 1 1.1 1.4 0.5 0.5 1 0.8 1.5 1.1-0.5 0.3-1.1 0.7-1.6 1.2-0.4 0.4-0.7 0.8-1 1.3-0.3-0.4-0.6-0.9-1-1.3-0.6-0.4-1.1-0.8-1.6-1.1zm-3.1 0c0 0.4 0.2 0.8 0.6 0.9 0 0 1.7 0.7 2.6 1.6 1 1 1.5 2.4 1.5 2.4 0.1 0.4 0.5 0.6 0.9 0.6s0.7-0.2 0.9-0.6 0.7-1.7 1.4-2.4c1-1 2.6-1.6 2.7-1.7 0.4-0.1 0.6-0.5 0.6-0.9s-0.2-0.7-0.6-0.9c0 0-1.5-0.6-2.5-1.6-0.7-0.7-1.4-2.1-1.6-2.5-0.1-0.4-0.5-0.6-0.9-0.6s-0.7 0.2-0.9 0.6c0 0-0.6 1.6-1.5 2.5-1.1 1.1-2.5 1.6-2.5 1.6-0.4 0.2-0.6 0.6-0.7 1z" fill="#CDCCCC"/>
<path d="m158.2 304.1c0.2-0.1 0.4-0.3 0.5-0.5 0.1-0.1 0.3-0.3 0.4-0.5 0.1 0.2 0.3 0.3 0.4 0.5 0.2 0.2 0.3 0.3 0.5 0.4-0.2 0.1-0.4 0.3-0.6 0.5-0.1 0.1-0.2 0.3-0.3 0.4-0.1-0.1-0.2-0.3-0.4-0.4-0.1-0.1-0.3-0.2-0.5-0.4zm-2.8 0c0 0.4 0.2 0.8 0.6 0.9 0.3 0.1 1.1 0.5 1.5 0.9s0.7 1.1 0.8 1.3c0.1 0.4 0.5 0.6 0.9 0.6s0.7-0.2 0.9-0.6c0.1-0.2 0.4-1 0.8-1.4 0.5-0.5 1.2-0.8 1.5-0.9 0.4-0.1 0.6-0.5 0.6-0.9s-0.2-0.7-0.6-0.9c0 0-0.9-0.3-1.4-0.9-0.4-0.4-0.8-1.2-0.9-1.4-0.1-0.4-0.5-0.5-0.9-0.6-0.4 0-0.7 0.3-0.9 0.6-0.1 0.2-0.4 1-0.8 1.4-0.6 0.6-1.4 0.9-1.4 0.9-0.5 0.2-0.7 0.6-0.7 1z" fill="#CDCCCC"/>
<path d="m183.9 242.6 0.6-0.6c0.2-0.2 0.3-0.4 0.5-0.6 0.1 0.2 0.3 0.4 0.5 0.6s0.4 0.4 0.6 0.5c-0.2 0.2-0.5 0.4-0.7 0.6-0.1 0.2-0.3 0.3-0.4 0.5-0.1-0.2-0.3-0.4-0.4-0.5-0.2-0.1-0.5-0.3-0.7-0.5zm-3.5 0c0 0.5 0.3 0.9 0.7 1.1 0.3 0.1 1.3 0.6 1.8 1.1s0.9 1.4 1 1.6c0.2 0.5 0.6 0.8 1.1 0.8s0.9-0.3 1.1-0.7c0.1-0.3 0.5-1.2 1-1.7 0.6-0.6 1.5-1 1.8-1.1 0.4-0.2 0.7-0.6 0.7-1.1s-0.3-0.9-0.7-1.1c0 0-1-0.4-1.7-1.1-0.5-0.5-0.9-1.4-1.1-1.7-0.2-0.4-0.6-0.7-1.1-0.7s-0.9 0.3-1 0.7c-0.1 0.3-0.5 1.2-1 1.7-0.7 0.7-1.7 1.1-1.7 1.1-0.5 0.2-0.9 0.6-0.9 1.1z" fill="#CDCCCC"/>
<path d="m912.8 396.6c0.4-0.4 0.8-0.9 1.1-1.4 0.3 0.5 0.6 1 1 1.3 0.5 0.5 1.1 0.9 1.7 1.3-0.5 0.3-1 0.7-1.5 1.2-0.4 0.4-0.8 1-1.1 1.5-0.3-0.5-0.7-1-1.1-1.5-0.5-0.5-1.1-0.9-1.6-1.2 0.5-0.3 1.1-0.7 1.5-1.2zm-4.1 2.2s1.5 0.5 2.7 1.7c1 1 1.6 2.6 1.6 2.6 0.1 0.4 0.5 0.6 0.9 0.6s0.8-0.2 0.9-0.6c0.2-0.5 0.9-1.9 1.6-2.6 1.1-1.1 2.6-1.7 2.7-1.7 0.4-0.1 0.6-0.5 0.6-0.9s-0.2-0.8-0.6-0.9c0 0-1.8-0.7-2.8-1.7-0.7-0.7-1.3-2.1-1.5-2.5-0.1-0.4-0.5-0.6-0.9-0.6s-0.8 0.3-0.9 0.7c0 0-0.5 1.5-1.5 2.5s-2.7 1.7-2.8 1.7c-0.4 0.2-0.6 0.5-0.6 0.9 0 0.3 0.2 0.7 0.6 0.8z" fill="#CDCCCC"/>
<path d="m922.6 384 0.4-0.4c0.1 0.1 0.2 0.3 0.4 0.4 0.2 0.2 0.4 0.4 0.6 0.5-0.2 0.1-0.4 0.3-0.5 0.5-0.1 0.1-0.3 0.3-0.4 0.5-0.1-0.2-0.3-0.3-0.4-0.5-0.2-0.2-0.4-0.3-0.6-0.5l0.5-0.5zm-2.9 1.5s0.9 0.3 1.5 0.9c0.4 0.4 0.8 1.2 0.9 1.5 0.1 0.4 0.5 0.6 0.9 0.6s0.8-0.2 0.9-0.6c0.1-0.3 0.5-1.1 0.9-1.5 0.6-0.6 1.5-0.9 1.5-0.9 0.4-0.1 0.6-0.5 0.6-0.9s-0.2-0.8-0.6-0.9c-0.3-0.1-1.1-0.5-1.6-1-0.4-0.4-0.7-1.2-0.8-1.4-0.1-0.4-0.5-0.6-0.9-0.6s-0.8 0.3-0.9 0.7c-0.1 0.2-0.4 0.9-0.9 1.4s-1.3 0.9-1.6 1c-0.4 0.2-0.6 0.5-0.6 0.9 0 0.3 0.3 0.6 0.7 0.8z" fill="#CDCCCC"/>
<path d="m984.9 159.2c-0.4 0-0.8 0.1-1.1 0.1 0.1-0.4 0.1-0.8 0.1-1.1 0-0.4 0-0.9-0.1-1.3 0.4 0.1 0.8 0.1 1.3 0.1 0.4 0 0.7 0 1.1-0.1-0.1 0.3-0.1 0.7-0.1 1 0 0.4 0.1 0.9 0.2 1.3-0.6 0.1-1 0-1.4 0zm3.6 1.2s-0.6-1.3-0.6-2.4c0-0.8 0.4-1.8 0.6-2.2s0.1-0.8-0.2-1.1-0.8-0.4-1.2-0.2c0 0-1.1 0.5-2.2 0.5-0.9 0-2-0.4-2.4-0.6s-0.8-0.1-1.1 0.2-0.4 0.8-0.2 1.1c0 0 0.5 1.1 0.5 2.3 0 0.8-0.4 1.9-0.6 2.2-0.2 0.4-0.1 0.8 0.2 1.1s0.7 0.4 1.1 0.2 1.5-0.5 2.3-0.5c1.2 0 2.3 0.5 2.3 0.5 0.4 0.2 0.8 0.1 1.1-0.2 0.5 0 0.6-0.5 0.4-0.9z" fill="#CDCCCC"/>
<path d="m71.1 161.1c0.3-0.3 0.5-0.6 0.7-0.9 0.2 0.3 0.5 0.6 0.8 0.9s0.7 0.6 1 0.8c-0.4 0.2-0.7 0.5-1 0.8s-0.5 0.6-0.7 0.8c-0.2-0.3-0.4-0.6-0.7-0.8-0.3-0.3-0.7-0.6-1.1-0.9 0.4-0.2 0.7-0.4 1-0.7zm-3.5 1.8s1.4 0.6 2.2 1.4c0.6 0.6 1 1.6 1.2 2s0.5 0.7 1 0.7c0.4 0 0.8-0.3 1-0.7 0 0 0.4-1.2 1.2-2 0.6-0.6 1.8-1.2 2.2-1.4s0.7-0.6 0.6-1c0-0.4-0.3-0.8-0.7-1 0 0-1.2-0.4-2.1-1.3-0.6-0.6-1.1-1.7-1.2-2-0.1-0.4-0.5-0.7-1-0.7-0.4 0-0.8 0.2-1 0.6s-0.7 1.5-1.3 2.1c-0.8 0.8-2.1 1.3-2.1 1.3-0.4 0.2-0.7 0.5-0.7 1 0 0.4 0.2 0.8 0.7 1z" fill="#CDCCCC"/>
<path d="m317.2 229.8c0.3-0.3 0.5-0.6 0.7-0.9 0.2 0.3 0.5 0.6 0.8 0.9s0.7 0.6 1 0.8c-0.4 0.2-0.7 0.5-1 0.8s-0.5 0.6-0.7 0.8c-0.2-0.3-0.4-0.6-0.7-0.8-0.3-0.3-0.7-0.6-1.1-0.9 0.4-0.1 0.7-0.4 1-0.7zm-3.6 1.8s1.4 0.6 2.2 1.4c0.6 0.6 1 1.6 1.2 2s0.5 0.7 1 0.7c0.4 0 0.8-0.3 1-0.7 0 0 0.4-1.2 1.2-2 0.6-0.6 1.8-1.2 2.2-1.4s0.7-0.6 0.6-1c0-0.4-0.3-0.8-0.7-1 0 0-1.2-0.4-2.1-1.3-0.6-0.6-1.1-1.7-1.2-2-0.1-0.4-0.5-0.7-1-0.7-0.4 0-0.8 0.2-1 0.6s-0.7 1.5-1.3 2.1c-0.8 0.8-2.1 1.3-2.1 1.3-0.4 0.2-0.7 0.5-0.7 1 0.1 0.5 0.3 0.9 0.7 1z" fill="#CDCCCC"/>
<path d="m18.9 331.2c0.3-0.3 0.5-0.6 0.7-0.9 0.2 0.3 0.5 0.6 0.8 0.9s0.7 0.6 1 0.8c-0.4 0.2-0.7 0.5-1 0.8s-0.5 0.6-0.7 0.8c-0.2-0.3-0.4-0.6-0.7-0.8-0.3-0.3-0.7-0.6-1.1-0.9 0.3-0.1 0.7-0.4 1-0.7zm-3.6 1.8s1.4 0.6 2.2 1.4c0.6 0.6 1 1.6 1.2 2s0.5 0.7 1 0.7c0.4 0 0.8-0.3 1-0.7 0 0 0.4-1.2 1.2-2 0.6-0.6 1.8-1.2 2.2-1.4s0.7-0.6 0.6-1c0-0.4-0.3-0.8-0.7-1 0 0-1.2-0.4-2.1-1.3-0.6-0.6-1.1-1.7-1.2-2-0.1-0.4-0.5-0.7-1-0.7-0.4 0-0.8 0.2-1 0.6s-0.7 1.5-1.3 2.1c-0.8 0.8-2.1 1.3-2.1 1.3-0.4 0.2-0.7 0.5-0.7 1s0.3 0.9 0.7 1z" fill="#CDCCCC"/>
<path d="m211.4 405.7c-12.3 0-22.4-10-22.4-22.4 0-10.3 7.1-19.1 16.7-21.6-4.3 4.6-6.7 10.7-6.7 17.1 0 12.7 9.5 23.3 21.8 24.9-2.9 1.3-6.1 2-9.4 2zm14-4.6h-0.4-0.9c-12.3 0-22.4-10-22.4-22.4 0-7.2 3.3-13.7 9.1-18 0.5-0.4 0.7-1 0.5-1.5-0.2-0.6-0.8-0.9-1.3-0.9-13.2 0.8-23.6 11.7-23.6 25 0 13.8 11.2 25.1 25.1 25.1 5.4 0 10.5-1.7 14.8-4.9 0.5-0.4 0.7-1 0.5-1.5-0.3-0.6-0.9-1-1.4-0.9z" fill="#CDCCCC"/>
<path d="m225.5 347.1c0.3-0.3 0.5-0.5 0.7-0.8 0.2 0.3 0.4 0.6 0.7 0.8 0.3 0.3 0.6 0.6 0.9 0.8-0.3 0.2-0.7 0.5-0.9 0.8-0.2 0.2-0.5 0.5-0.6 0.8-0.2-0.3-0.4-0.5-0.6-0.8-0.3-0.3-0.7-0.6-1-0.8 0.2-0.3 0.5-0.5 0.8-0.8zm-3.3 1.6s1.3 0.5 2 1.2c0.5 0.5 0.9 1.5 1.1 1.8 0.1 0.4 0.5 0.6 0.9 0.6s0.8-0.3 0.9-0.7c0 0 0.4-1.1 1.1-1.8 0.6-0.6 1.6-1.1 2-1.2 0.4-0.2 0.6-0.5 0.6-0.9s-0.3-0.8-0.7-0.9c0 0-1.1-0.4-1.9-1.2-0.6-0.6-1-1.5-1.1-1.9s-0.5-0.6-0.9-0.6-0.8 0.2-0.9 0.6-0.7 1.4-1.2 1.9c-0.8 0.8-1.9 1.2-1.9 1.2-0.4 0.1-0.6 0.5-0.6 0.9-0.1 0.5 0.2 0.9 0.6 1z" fill="#CDCCCC"/>
<path d="m241.8 356.3c-0.4 0.4-0.8 0.9-1 1.3-0.3-0.5-0.6-0.9-1-1.3-0.5-0.5-1.1-0.9-1.6-1.2 0.5-0.3 1-0.7 1.5-1.2 0.4-0.4 0.8-0.9 1.1-1.4 0.3 0.5 0.7 1 1.1 1.4 0.5 0.5 1 0.9 1.5 1.2-0.5 0.4-1.1 0.8-1.6 1.2zm4-2.1s-1.5-0.5-2.6-1.6c-0.9-0.9-1.5-2.5-1.5-2.5-0.1-0.4-0.5-0.6-0.9-0.6s-0.8 0.2-0.9 0.6c-0.2 0.5-0.9 1.8-1.6 2.6-1 1-2.6 1.6-2.6 1.6-0.4 0.1-0.6 0.5-0.6 0.9s0.2 0.8 0.6 0.9c0 0 1.7 0.7 2.7 1.7 0.7 0.7 1.3 2 1.5 2.5 0.1 0.4 0.5 0.6 0.9 0.6s0.8-0.3 0.9-0.7c0 0 0.5-1.5 1.5-2.5s2.7-1.7 2.7-1.7c0.4-0.2 0.6-0.5 0.6-0.9s-0.3-0.7-0.7-0.9z" fill="#CDCCCC"/>
<path d="m232.3 368.6-0.4 0.4c-0.1-0.1-0.2-0.3-0.4-0.4-0.2-0.2-0.4-0.4-0.6-0.5 0.2-0.1 0.4-0.3 0.5-0.5 0.1-0.1 0.3-0.3 0.4-0.5 0.1 0.2 0.3 0.3 0.4 0.5 0.2 0.2 0.4 0.3 0.5 0.5 0 0.2-0.2 0.4-0.4 0.5zm2.8-1.4s-0.8-0.3-1.5-0.9c-0.4-0.4-0.8-1.2-0.9-1.4-0.1-0.4-0.5-0.6-0.9-0.6s-0.8 0.2-0.9 0.6c-0.1 0.3-0.5 1.1-0.9 1.5-0.6 0.6-1.5 0.9-1.5 0.9-0.4 0.1-0.6 0.5-0.6 0.9s0.2 0.8 0.6 0.9c0.3 0.1 1.1 0.5 1.6 1 0.4 0.4 0.7 1.2 0.8 1.4 0.1 0.4 0.5 0.6 0.9 0.6s0.8-0.3 0.9-0.7c0.1-0.2 0.4-0.9 0.8-1.4 0.4-0.4 1.3-0.8 1.5-0.9 0.4-0.2 0.6-0.5 0.6-0.9 0.2-0.5-0.1-0.8-0.5-1z" fill="#CDCCCC"/>
<path d="m266.3 408.4-1.7-1.7 1.7-1.7 1.7 1.7-1.7 1.7zm5.4-2.8h-1.7l-2.6-2.6v-1.7c0-0.6-0.5-1.1-1.1-1.1s-1.1 0.5-1.1 1.1v1.7l-2.6 2.6h-1.7c-0.6 0-1.1 0.5-1.1 1.1s0.5 1.1 1.1 1.1h1.7l2.6 2.6v1.7c0 0.6 0.5 1.1 1.1 1.1s1.1-0.5 1.1-1.1v-1.7l2.6-2.6h1.7c0.6 0 1.1-0.5 1.1-1.1s-0.5-1.1-1.1-1.1z" fill="#CDCCCC"/>
<path d="m262 412.1c0 1.4-2.2 1.4-2.2 0s2.2-1.4 2.2 0" fill="#CDCCCC"/>
<path d="m731.4 107.4c-1.5 0-2.9-0.7-3.8-1.8-1.7-2.1-1.4-5.2 0.7-7l0.4-0.3-5.6-10.3h-0.3-0.2c-1.1 0-2.1-0.5-2.8-1.4-0.3-0.4-0.5-0.8-0.5-0.9l0.1-0.4h-0.4l-14.2-3-0.1 0.2c-0.2 0.4-0.7 0.9-1.1 1.3-0.9 0.7-2 1.1-3.1 1.1-1.5 0-2.9-0.7-3.8-1.8-0.7-0.9-1.1-2.2-1.1-3.6v-0.3l-10.4-3.5-0.2 0.3c-0.2 0.3-0.6 0.8-1 1.2-0.8 0.6-1.8 1-2.8 1-1.4 0-2.7-0.6-3.5-1.6l-0.5-0.6-16.5 5.7v0.3c0.2 2.1-0.6 4.1-2.2 5.4-1.1 0.9-2.5 1.4-4 1.4-1.9 0-3.7-0.9-4.9-2.3-1.1-1.3-1.6-3-1.4-4.6 0.2-1.7 1-3.2 2.3-4.2 1.1-0.9 2.5-1.4 4-1.4 1.9 0 3.7 0.8 4.9 2.3 0.1 0.1 0.1 0.2 0.2 0.3 0.1 0.2 0.2 0.3 0.3 0.5l0.2 0.2 16.4-5.6v-0.3c0.1-1.1 0.5-2.6 1.7-3.6 0.8-0.6 1.8-1 2.8-1 1.4 0 2.7 0.6 3.5 1.6 0.6 0.8 1 1.7 1 2.5v0.3l10.8 3.6 0.2-0.3c0.2-0.3 0.5-0.6 0.9-0.9 0.9-0.7 2-1.1 3.1-1.1 1.5 0 2.9 0.7 3.8 1.8 0.7 0.8 1.1 1.9 1.1 3v0.3l14 3 0.3-0.5c0.3-0.4 0.5-0.7 0.8-0.9 0.7-0.5 1.4-0.8 2.3-0.8 1.1 0 2.1 0.5 2.8 1.3l0.3 0.3 30.8-7.9v-0.3c0.2-1.6 0.9-2.9 2.2-3.9 1.1-0.9 2.4-1.4 3.8-1.4 1.8 0 3.6 0.8 4.8 2.3 1.1 1.3 1.6 3 1.4 4.6-0.2 1.7-1 3.2-2.3 4.2-0.5 0.4-1.1 0.7-1.6 0.9l-0.2 0.1 0.3 11.1 0.3 0.1c1.1 0.4 2 0.9 2.6 1.6 0.8 1 1.2 2.3 1.1 3.6s-0.8 2.5-1.8 3.3c-0.9 0.7-2 1.1-3.1 1.1-1.5 0-2.9-0.7-3.8-1.8 0 0 0-0.1-0.1-0.1-0.1-0.2-0.2-0.4-0.3-0.5l-0.1-0.2-23.5 4.1-0.1 0.2c-0.4 1.1-0.9 2-1.6 2.6-1.1 1-2.2 1.4-3.3 1.4zm0.1-7.6c-0.6 0-1.3 0.2-1.8 0.6-1.2 1-1.4 2.7-0.4 3.9 0.5 0.7 1.3 1 2.2 1 0.6 0 1.3-0.2 1.8-0.6 0.6-0.5 1.1-1.3 1.1-2.1 0-0.7-0.2-1.4-0.7-1.8-0.6-0.7-1.4-1-2.2-1zm0.2-2.4c1.4 0 2.7 0.7 3.7 1.9 0.4 0.5 0.8 1.2 0.9 1.7l0.1 0.4 23-3.9v-0.3c0.1-1.5 0.7-2.9 1.9-3.8 0.5-0.4 1.2-0.8 1.7-0.9l0.3-0.1-0.3-11.2h-0.4c-1.8-0.1-3.4-0.9-4.5-2.3-0.5-0.7-1-1.4-1.2-2.1l-0.1-0.4-30.3 7.8v0.3c0 0.7-0.3 1.4-1 2.2l-0.2 0.2 5.5 10.5h0.3 0.6zm32.7-3c-0.6 0-1.3 0.2-1.8 0.6-0.6 0.5-1 1.1-1 1.9-0.1 0.7 0.1 1.5 0.6 2 0.5 0.7 1.3 1 2.1 1 0.6 0 1.3-0.2 1.8-0.6 0.6-0.5 1-1.3 1-2.1 0-0.7-0.2-1.4-0.7-1.8-0.4-0.6-1.1-1-2-1zm-110.1-16.2c-1 0-1.9 0.3-2.6 0.9-0.9 0.7-1.4 1.7-1.5 2.8s0.2 2.2 0.9 3c0.8 1 2 1.5 3.2 1.5 1 0 1.9-0.3 2.6-0.9 0.9-0.7 1.4-1.7 1.5-2.8s-0.2-2.2-0.9-3c-0.8-1-2-1.5-3.2-1.5zm68.5 4.7c-0.3 0-0.6 0.1-0.9 0.3s-0.5 0.6-0.5 1 0.1 0.8 0.3 1.1c0.3 0.3 0.7 0.5 1.1 0.5 0.3 0 0.6-0.1 0.9-0.3s0.5-0.6 0.5-1-0.1-0.8-0.3-1.1c-0.3-0.3-0.7-0.5-1.1-0.5zm-22.5-5.9c-0.6 0-1.3 0.2-1.8 0.6-1.2 1-1.4 2.7-0.4 3.9 0.5 0.7 1.3 1 2.1 1 0.6 0 1.3-0.2 1.8-0.6 0.6-0.5 1-1.1 1-1.9 0.1-0.7-0.1-1.5-0.6-2-0.5-0.6-1.3-1-2.1-1zm62.7-6c-1 0-1.9 0.3-2.6 0.9-0.9 0.7-1.4 1.7-1.5 2.8s0.2 2.2 0.9 3c0.8 1 2 1.5 3.2 1.5 1 0 1.9-0.3 2.6-0.9 1.7-1.4 2-4.1 0.6-5.8-0.8-0.9-2-1.5-3.2-1.5zm-82.2 0c-0.5 0-1.1 0.2-1.5 0.5-0.5 0.4-0.8 0.9-0.8 1.6-0.1 0.6 0.1 1.2 0.5 1.7s1.1 0.8 1.8 0.8c0.5 0 1.1-0.2 1.5-0.5 0.5-0.4 0.8-1 0.8-1.6 0.1-0.6-0.1-1.2-0.5-1.7s-1.1-0.8-1.8-0.8z" fill="#CDCCCC"/>
<g fill="#CDCCCC">
	<path d="m140.6 264c-1.1 0-2.1-0.4-2.8-1-1.2-1.2-1.4-3.2-0.4-5.6 0.2-0.6 0.5-1.2 0.9-1.9l-4.6-4.6c-0.1 0.6 0 1.1 0.3 1.3 0.4 0.4 0.4 1 0 1.4-0.2 0.2-0.4 0.3-0.7 0.3s-0.5-0.1-0.7-0.3l-9.1-9.1c-1-1-1.2-2.5-0.5-4.4 0.6-1.6 1.7-3.4 3.2-4.9 2.2-2.2 4.9-3.6 6.9-3.6 0.7 0 1.4 0.2 1.9 0.5 0.3 0.1 0.5 0.2 0.6 0.3l9.1 9.1c0.2 0.2 0.3 0.4 0.3 0.7s-0.1 0.5-0.3 0.7l-0.1 0.1c-0.2 0.2-0.4 0.3-0.7 0.3s-0.5-0.1-0.7-0.3c-0.3-0.3-0.7-0.3-1-0.3h-0.1l4.5 4.5c1.8-1 3.4-1.5 4.8-1.5 1.1 0 2.1 0.4 2.8 1 1.2 1.2 1.4 3.2 0.4 5.6-0.7 1.9-2.1 4-3.9 5.9l2.3 2.3c0.2 0.2 0.3 0.4 0.3 0.7s-0.1 0.5-0.3 0.7-0.4 0.3-0.7 0.3-0.5-0.1-0.7-0.3l-2.3-2.3c-3 2.7-6.2 4.4-8.7 4.4zm10.7-16.5c-1.8 0-5 1.4-8.1 4.5-1.9 1.9-3.4 4-4.1 6-0.6 1.7-0.6 3 0 3.6 0.3 0.3 0.8 0.5 1.4 0.5 1.6 0 4.5-1.2 7.4-3.9l-1.7-1.7c-0.2-0.2-0.3-0.4-0.3-0.7s0.1-0.5 0.3-0.7 0.4-0.3 0.7-0.3 0.5 0.1 0.7 0.3l1.7 1.7c1.6-1.7 2.8-3.6 3.4-5.3s0.6-3 0-3.6c-0.3-0.2-0.7-0.4-1.4-0.4zm-12 6.2c0.7-1.1 1.6-2.1 2.6-3 0.9-0.9 2-1.8 3-2.6l-5-5c-0.8 0.4-2 1.1-3.3 2.4-1 1-1.8 2.1-2.3 3.2l5 5zm-6.2-20.3c-1.2 0-3.3 0.8-5.6 3-1.3 1.3-2.3 2.8-2.8 4.1-0.4 1.1-0.3 2 0.1 2.4l7 7 0.1-0.4c0-0.2 0.1-0.3 0.2-0.5 0.6-1.6 1.7-3.4 3.2-4.9 1.7-1.7 3.7-3 5.6-3.4l0.4-0.1-6.7-6.7c-0.2 0-0.3-0.1-0.4-0.2-0.3-0.2-0.7-0.3-1.1-0.3z"/>
	<path d="m151.8 261.7c0.1 0.1 0.3 0.2 0.5 0.2s0.4-0.1 0.5-0.2c0.3-0.3 0.3-0.8 0-1.1l-2.4-2.4c1.8-1.9 3.2-4 3.9-6 0.9-2.4 0.7-4.3-0.4-5.4-0.6-0.6-1.5-1-2.6-1-1.4 0-3.1 0.6-4.8 1.5l-4.9-4.9h0.5c0.4 0 0.8 0.1 1.2 0.4 0.1 0.1 0.3 0.2 0.5 0.2s0.4-0.1 0.5-0.2l0.1-0.1c0.1-0.1 0.2-0.3 0.2-0.5s-0.1-0.4-0.2-0.5l-9.1-9.1c-0.1-0.1-0.3-0.2-0.4-0.2h-0.2c-0.5-0.3-1.1-0.5-1.8-0.5-2 0-4.6 1.4-6.8 3.5-1.5 1.5-2.6 3.2-3.2 4.8-0.6 1.8-0.4 3.3 0.5 4.2l9.1 9.1c0.2 0.1 0.3 0.2 0.6 0.2s0.4-0.1 0.5-0.2c0.3-0.3 0.3-0.8 0-1.1-0.4-0.4-0.5-1-0.3-1.9l5 5c-0.4 0.7-0.7 1.4-1 2-0.9 2.4-0.7 4.3 0.4 5.4 0.6 0.6 1.6 1 2.6 1 2.5 0 5.8-1.7 8.8-4.5l2.7 2.3zm-19.7-12-0.2 0.7-7.2-7.2c-0.5-0.5-0.5-1.4-0.1-2.6 0.5-1.4 1.5-2.9 2.8-4.2 2.3-2.3 4.5-3.1 5.7-3.1 0.5 0 0.9 0.1 1.2 0.4 0.1 0.1 0.2 0.2 0.3 0.2h0.1l6.9 6.9-0.7 0.2c-1.8 0.4-3.8 1.7-5.5 3.4-1.5 1.5-2.6 3.2-3.2 4.8 0 0.1-0.1 0.3-0.1 0.5zm2-0.9c0.5-1.1 1.4-2.3 2.4-3.3 1.2-1.2 2.4-2 3.5-2.5l5.2 5.2c-1.1 0.7-2.2 1.6-3.2 2.7-1 1-1.9 2.1-2.7 3.2l-5.2-5.3zm6.5 13.4c-0.7 0-1.2-0.2-1.5-0.5-0.7-0.7-0.7-2.1 0-3.8 0.7-2 2.2-4.1 4.1-6 3.2-3.2 6.4-4.6 8.3-4.6 0.7 0 1.2 0.2 1.5 0.5 0.7 0.7 0.7 2.1 0 3.8-0.7 1.8-1.9 3.7-3.6 5.5l-1.8-1.8c-0.1-0.1-0.3-0.2-0.5-0.2s-0.4 0.1-0.5 0.2-0.2 0.3-0.2 0.5 0.1 0.4 0.2 0.5l1.8 1.8c-3.1 2.9-6.1 4.1-7.8 4.1z"/>
	<path d="m149.9 267.9h-0.8s-0.5-0.2-0.6-0.3c-0.2-0.2-0.2-0.4-0.2-0.7 0.1-0.5 0.5-0.9 1-0.9h0.6c1.8 0 3.6-0.8 5.1-2.2 1.3-1.3 2.1-2.9 2.2-4.5 0-0.5 0.5-0.9 1-0.9 0.6 0 0.9 0.5 0.9 1-0.2 2.1-1.2 4.1-2.8 5.7-1.8 1.8-4.1 2.8-6.4 2.8z"/>
	<path d="m149.9 267.8c2.3 0 4.6-1 6.3-2.7 1.6-1.6 2.5-3.6 2.7-5.6 0-0.4-0.3-0.8-0.7-0.8-0.5 0-0.8 0.3-0.8 0.7-0.1 1.7-1 3.3-2.3 4.7-1.5 1.5-3.4 2.3-5.2 2.3h-0.6c-0.5 0-0.8 0.3-0.8 0.7 0 0.2 0 0.4 0.2 0.6 0.1 0.2 0.3 0.3 0.5 0.3 0.2-0.3 0.4-0.2 0.7-0.2z"/>
	<path d="m151.3 272.6c-0.7 0-1.4-0.1-2.1-0.2-0.5-0.1-0.9-0.6-0.8-1.1s0.5-0.8 0.9-0.8h0.2c0.6 0.1 1.2 0.2 1.7 0.2 2.7 0 5.4-1.2 7.4-3.2 2.1-2.1 3.2-4.9 3.2-7.7 0-0.5 0.4-1 1-1 0.5 0 0.9 0.4 0.9 0.9 0.1 3.3-1.2 6.6-3.7 9.1-2.4 2.4-5.5 3.8-8.7 3.8z"/>
	<path d="m162.8 259c-0.5 0-0.8 0.4-0.8 0.8 0.1 2.8-1.1 5.7-3.2 7.8-2 2-4.8 3.2-7.5 3.2-0.6 0-1.2-0.1-1.8-0.2h-0.1c-0.4 0-0.7 0.3-0.8 0.6-0.1 0.4 0.2 0.8 0.6 0.9 0.7 0.1 1.4 0.2 2.1 0.2 3.1 0 6.3-1.3 8.6-3.7 2.4-2.4 3.8-5.7 3.7-9-0.1-0.3-0.4-0.6-0.8-0.6z"/>
	<path d="m144.9 239.8c-0.3 0-0.5-0.1-0.7-0.3l-8.2-8.2c-0.2-0.2-0.3-0.4-0.3-0.7s0.1-0.5 0.3-0.7l13.6-13.6c0.2-0.2 0.4-0.3 0.7-0.3s0.5 0.1 0.7 0.3l8.2 8.2c0.2 0.2 0.3 0.4 0.3 0.7s-0.1 0.5-0.3 0.7l-13.6 13.6c-0.2 0.2-0.4 0.3-0.7 0.3zm0-2.3 12.2-12.2-6.9-6.9-12.2 12.2 6.9 6.9z"/>
	<path d="m144.4 239.4c0.1 0.1 0.3 0.2 0.5 0.2s0.4-0.1 0.5-0.2l13.6-13.6c0.1-0.1 0.2-0.3 0.2-0.5s-0.1-0.4-0.2-0.5l-8.2-8.2c-0.1-0.1-0.3-0.2-0.5-0.2s-0.4 0.1-0.5 0.2l-13.6 13.4c-0.1 0.1-0.2 0.3-0.2 0.5s0.1 0.4 0.2 0.5l8.2 8.4zm5.9-21.3 7.1 7.1-12.5 12.5-7.1-7.1 12.5-12.5z"/>
	<path d="m116.4 268.3c-0.3 0-0.5-0.1-0.7-0.3l-8.2-8.2c-0.2-0.2-0.3-0.4-0.3-0.7s0.1-0.5 0.3-0.7l13.6-13.6c0.2-0.2 0.4-0.3 0.7-0.3s0.5 0.1 0.7 0.3l8.2 8.2c0.4 0.4 0.4 1 0 1.4l-13.6 13.6c-0.2 0.2-0.5 0.3-0.7 0.3zm0-2.3 12.2-12.2-6.9-6.9-12.2 12.2 6.9 6.9z"/>
	<path d="m122.3 245c-0.1-0.1-0.3-0.2-0.5-0.2s-0.4 0.1-0.5 0.2l-13.6 13.6c-0.1 0.1-0.2 0.3-0.2 0.5s0.1 0.4 0.2 0.5l8.2 8.2c0.1 0.1 0.3 0.2 0.5 0.2s0.4-0.1 0.5-0.2l13.6-13.6c0.3-0.3 0.3-0.8 0-1.1l-8.2-8.1zm-5.9 21.3-7.1-7.1 12.5-12.5 7.1 7.1-12.5 12.5z"/>
</g>
<path d="m224.1 161.6-1.4-1.4 1.4-1.4 1.4 1.4-1.4 1.4zm4.6-2.4h-1.4l-2.3-2.2v-1.4c0-0.5-0.4-0.9-0.9-0.9s-0.9 0.4-0.9 0.9v1.4l-2.2 2.2h-1.4c-0.5 0-0.9 0.4-0.9 0.9s0.4 0.9 0.9 0.9h1.4l2.2 2.2v1.4c0 0.5 0.4 0.9 0.9 0.9s0.9-0.4 0.9-0.9v-1.4l2.2-2.2h1.4c0.5 0 0.9-0.4 0.9-0.9s-0.3-0.9-0.8-0.9z" fill="#CDCCCC"/>
<path d="m220.5 164.7c0 1.2-1.8 1.2-1.8 0s1.8-1.2 1.8 0" fill="#CDCCCC"/>
<path d="m798.2 427.8c0.2-0.2 0.5-0.5 0.7-0.8 0.2 0.3 0.4 0.6 0.7 0.8 0.3 0.3 0.6 0.5 0.9 0.7-0.3 0.2-0.6 0.5-0.9 0.7-0.2 0.2-0.4 0.5-0.6 0.7-0.2-0.3-0.4-0.5-0.6-0.7-0.3-0.3-0.6-0.5-1-0.8 0.2-0.1 0.5-0.4 0.8-0.6zm-3.2 1.6s1.2 0.5 1.9 1.2c0.5 0.5 0.9 1.4 1 1.8s0.5 0.6 0.9 0.6 0.7-0.3 0.9-0.6c0 0 0.4-1.1 1.1-1.7 0.6-0.6 1.6-1 1.9-1.2 0.4-0.1 0.6-0.5 0.6-0.9s-0.3-0.7-0.6-0.8c0 0-1.1-0.4-1.8-1.2-0.5-0.5-1-1.5-1.1-1.8-0.1-0.4-0.5-0.6-0.9-0.6s-0.7 0.2-0.9 0.6c-0.1 0.3-0.6 1.3-1.1 1.8-0.7 0.7-1.8 1.2-1.8 1.2-0.4 0.1-0.6 0.5-0.6 0.9-0.1 0.2 0.2 0.5 0.5 0.7z" fill="#CDCCCC"/>
<path d="m814 436.7c-0.4 0.4-0.7 0.9-1 1.3-0.3-0.4-0.6-0.9-1-1.3-0.5-0.5-1-0.9-1.6-1.2 0.5-0.3 1-0.7 1.4-1.1s0.8-0.9 1.1-1.4c0.3 0.5 0.6 1 1.1 1.4 0.5 0.5 1 0.9 1.5 1.1-0.6 0.3-1.1 0.7-1.5 1.2zm3.8-2.1s-1.4-0.5-2.5-1.6c-0.9-0.9-1.5-2.4-1.5-2.4-0.1-0.4-0.5-0.6-0.8-0.6-0.4 0-0.7 0.2-0.9 0.6-0.2 0.5-0.8 1.8-1.5 2.5-1 1-2.5 1.6-2.5 1.6-0.4 0.1-0.6 0.5-0.6 0.9s0.2 0.7 0.6 0.9c0 0 1.7 0.7 2.6 1.6 0.7 0.7 1.2 1.9 1.4 2.4 0.1 0.4 0.5 0.6 0.9 0.6s0.7-0.3 0.9-0.6c0 0 0.5-1.4 1.4-2.4 0.9-0.9 2.6-1.6 2.6-1.6 0.4-0.1 0.6-0.5 0.6-0.9-0.1-0.5-0.3-0.9-0.7-1z" fill="#CDCCCC"/>
<path d="m804.8 448.5-0.4 0.4c-0.1-0.1-0.2-0.3-0.3-0.4-0.2-0.2-0.4-0.3-0.6-0.5 0.2-0.1 0.3-0.3 0.5-0.4 0.1-0.1 0.3-0.3 0.4-0.5 0.1 0.2 0.3 0.3 0.4 0.5l0.5 0.5c-0.2 0.1-0.4 0.2-0.5 0.4zm2.7-1.3s-0.8-0.3-1.4-0.9c-0.4-0.4-0.7-1.1-0.8-1.4-0.1-0.4-0.5-0.6-0.9-0.6s-0.7 0.2-0.9 0.6c-0.1 0.3-0.5 1-0.9 1.4-0.6 0.6-1.4 0.9-1.4 0.9-0.4 0.1-0.6 0.5-0.6 0.9s0.2 0.7 0.6 0.9c0.3 0.1 1 0.5 1.5 0.9 0.4 0.4 0.7 1.1 0.8 1.3 0.1 0.4 0.5 0.6 0.9 0.6s0.7-0.3 0.9-0.6c0.1-0.2 0.4-0.9 0.8-1.3s1.2-0.8 1.5-0.9c0.4-0.1 0.6-0.5 0.6-0.9-0.1-0.5-0.3-0.8-0.7-0.9z" fill="#CDCCCC"/>
<path d="m1042.3 456.9c-0.3 0.2-0.7 0.5-1 0.8-0.2 0.2-0.4 0.5-0.6 0.7-0.2-0.3-0.4-0.5-0.6-0.7-0.3-0.3-0.6-0.5-0.9-0.7 0.3-0.2 0.6-0.4 0.9-0.7 0.3-0.2 0.5-0.5 0.7-0.8 0.2 0.3 0.4 0.6 0.7 0.8 0.2 0.1 0.5 0.4 0.8 0.6zm2.9 0c0-0.4-0.2-0.7-0.6-0.9 0 0-1.1-0.4-1.8-1.2-0.5-0.5-1-1.5-1.1-1.8s-0.5-0.6-0.9-0.6-0.7 0.2-0.9 0.6c-0.1 0.3-0.5 1.3-1.1 1.8-0.8 0.8-1.8 1.2-1.8 1.2-0.4 0.1-0.6 0.5-0.6 0.8 0 0.4 0.2 0.7 0.6 0.9 0.3 0.1 1.4 0.6 1.9 1.2 0.7 0.7 1.1 1.7 1.1 1.7 0.1 0.4 0.5 0.6 0.9 0.6s0.7-0.2 0.9-0.6c0.1-0.3 0.5-1.3 1-1.8 0.7-0.7 1.9-1.2 1.9-1.2 0.3 0 0.5-0.3 0.5-0.7z" fill="#CDCCCC"/>
<path d="m1024.2 463.9c0.5-0.3 1-0.7 1.5-1.1 0.4-0.4 0.8-0.9 1.1-1.4 0.3 0.5 0.7 1 1.1 1.4 0.5 0.4 1 0.8 1.4 1.1-0.5 0.3-1.1 0.7-1.6 1.2-0.4 0.4-0.7 0.8-1 1.3-0.3-0.4-0.6-0.9-1-1.3-0.5-0.5-1-0.9-1.5-1.2zm-3 0c0 0.4 0.2 0.7 0.6 0.9 0 0 1.7 0.7 2.6 1.6s1.4 2.4 1.4 2.4c0.1 0.4 0.5 0.6 0.9 0.6s0.7-0.2 0.9-0.6 0.7-1.7 1.4-2.4c1-1 2.6-1.6 2.6-1.6 0.4-0.1 0.6-0.5 0.6-0.9s-0.2-0.7-0.6-0.9c0 0-1.5-0.6-2.5-1.6-0.7-0.7-1.3-2-1.5-2.5-0.1-0.4-0.5-0.5-0.9-0.6-0.4 0-0.7 0.2-0.8 0.6 0 0-0.6 1.5-1.5 2.4-1.1 1.1-2.5 1.6-2.5 1.6-0.4 0.2-0.7 0.6-0.7 1z" fill="#CDCCCC"/>
<path d="m1034.3 476.4c0.2-0.1 0.4-0.3 0.5-0.5 0.1-0.1 0.3-0.3 0.4-0.5 0.1 0.2 0.3 0.3 0.4 0.5 0.2 0.2 0.3 0.3 0.5 0.4-0.2 0.1-0.4 0.3-0.6 0.5-0.1 0.1-0.2 0.3-0.3 0.4-0.1-0.1-0.2-0.3-0.4-0.4-0.1-0.1-0.3-0.2-0.5-0.4zm-2.8 0c0 0.4 0.2 0.7 0.6 0.9 0.3 0.1 1.1 0.5 1.5 0.9s0.7 1.1 0.8 1.3c0.1 0.4 0.5 0.6 0.9 0.6s0.7-0.2 0.9-0.6c0.1-0.2 0.4-1 0.8-1.3 0.5-0.5 1.2-0.8 1.5-0.9 0.4-0.1 0.6-0.5 0.6-0.9s-0.2-0.7-0.6-0.9c0 0-0.9-0.3-1.4-0.9-0.4-0.4-0.8-1.2-0.9-1.4-0.1-0.3-0.5-0.5-0.9-0.6-0.4 0-0.7 0.3-0.9 0.6-0.1 0.2-0.4 1-0.8 1.4-0.6 0.6-1.4 0.9-1.4 0.9-0.4 0.2-0.7 0.5-0.7 0.9z" fill="#CDCCCC"/>
<path d="m1048.3 241.7c0.3-0.3 0.5-0.6 0.7-0.9 0.2 0.3 0.5 0.6 0.8 0.9s0.7 0.6 1 0.8c-0.4 0.2-0.7 0.5-1 0.8s-0.5 0.6-0.7 0.8c-0.2-0.3-0.4-0.6-0.7-0.8-0.3-0.3-0.7-0.6-1.1-0.9 0.3-0.1 0.7-0.4 1-0.7zm-3.6 1.8s1.4 0.6 2.2 1.4c0.6 0.6 1 1.6 1.2 2s0.5 0.7 1 0.7c0.4 0 0.8-0.3 1-0.7 0 0 0.4-1.2 1.2-2 0.6-0.6 1.8-1.2 2.2-1.4s0.7-0.6 0.6-1c0-0.4-0.3-0.8-0.7-1 0 0-1.2-0.4-2.1-1.3-0.6-0.6-1.1-1.7-1.2-2-0.1-0.4-0.5-0.7-1-0.7-0.4 0-0.8 0.2-1 0.6s-0.7 1.5-1.3 2.1c-0.8 0.8-2.1 1.3-2.1 1.3-0.4 0.2-0.7 0.5-0.7 1s0.3 0.9 0.7 1z" fill="#CDCCCC"/>
<path d="m1034.8 265c-0.5 0.5-0.8 1-1.1 1.5-0.3-0.5-0.7-1-1.1-1.4-0.5-0.5-1.2-1-1.8-1.4 0.5-0.3 1.1-0.8 1.6-1.3 0.4-0.5 0.9-1 1.2-1.6 0.3 0.5 0.7 1.1 1.2 1.6s1.1 1 1.7 1.3c-0.6 0.3-1.2 0.8-1.7 1.3zm4.4-2.4s-1.6-0.6-2.8-1.8c-1-1-1.7-2.7-1.7-2.8-0.1-0.4-0.5-0.7-1-0.7-0.4 0-0.8 0.2-1 0.6-0.2 0.5-0.9 2-1.7 2.8-1.1 1.1-2.8 1.8-2.8 1.8-0.4 0.2-0.7 0.5-0.7 1 0 0.4 0.3 0.8 0.7 1 0 0 1.9 0.7 3 1.8 0.8 0.8 1.4 2.2 1.6 2.7 0.2 0.4 0.5 0.7 1 0.7 0.4 0 0.8-0.3 1-0.7 0 0 0.6-1.6 1.6-2.7 1-1 2.9-1.8 2.9-1.8 0.4-0.2 0.7-0.6 0.7-1-0.1-0.3-0.4-0.7-0.8-0.9z" fill="#CDCCCC"/>
<path d="m727 327-1.4-1.4 1.4-1.4 1.4 1.4-1.4 1.4zm4.5-2.3h-1.4l-2.2-2.2v-1.5c0-0.5-0.4-0.9-0.9-0.9s-0.9 0.4-0.9 0.9v1.4l-2.2 2.2h-1.4c-0.5 0-0.9 0.4-0.9 0.9s0.4 0.9 0.9 0.9h1.4l2.2 2.2v1.4c0 0.5 0.4 0.9 0.9 0.9s0.9-0.4 0.9-0.9v-1.4l2.2-2.2h1.4c0.5 0 0.9-0.4 0.9-0.9 0-0.4-0.4-0.8-0.9-0.8z" fill="#CDCCCC"/>
<path d="m723.3 330.1c0 1.2-1.8 1.2-1.8 0s1.8-1.2 1.8 0" fill="#CDCCCC"/>
<path d="m783 277.6c-0.6-0.3-0.9-1.1-0.6-1.7s1.1-0.8 1.7-0.5c0.7 0.3 0.9 1.1 0.6 1.7-0.2 0.6-1 0.8-1.7 0.5zm2-3.9c-1.6-0.8-3.5-0.2-4.2 1.3-0.8 1.5-0.2 3.4 1.4 4.2s3.5 0.2 4.2-1.3c0.8-1.5 0.2-3.4-1.4-4.2z" fill="#CDCCCC"/>
<path d="m839.6 279.7c0.3 0.1 0.4 0.4 0.3 0.7-0.1 0.2-0.5 0.3-0.7 0.2-0.3-0.1-0.4-0.4-0.3-0.7s0.5-0.3 0.7-0.2zm-1.3 2.6c1.2 0.6 2.6 0.2 3.2-1s0.1-2.6-1.1-3.2-2.6-0.2-3.2 1-0.1 2.6 1.1 3.2z" fill="#CDCCCC"/>
<path d="m821.1 252.9c1.2 0.6 1.7 2 1.1 3.2s-2 1.6-3.2 1-1.7-2-1.1-3.2c0.7-1.2 2.1-1.6 3.2-1zm-3 5.8c2.1 1.1 4.7 0.3 5.7-1.8 1.1-2.1 0.3-4.6-1.9-5.7-2.1-1.1-4.7-0.3-5.7 1.8s-0.1 4.6 1.9 5.7z" fill="#CDCCCC"/>
<path d="m780.7 230.1 1.2 0.6-0.6 1.2c-0.3 0.5-0.1 1 0.4 1.3s1 0.1 1.3-0.4l0.6-1.2 1.2 0.6c0.5 0.3 1 0.1 1.3-0.4s0.1-1-0.4-1.3l-1.2-0.6 0.6-1.2c0.3-0.5 0.1-1-0.4-1.3s-1-0.1-1.3 0.4l-0.6 1.2-1.2-0.6c-0.5-0.3-1-0.1-1.3 0.4-0.3 0.6-0.1 1.1 0.4 1.3z" fill="#CDCCCC"/>
<path d="m823.1 302.5-1.2-0.6 0.6-1.2c0.3-0.5 0.1-1-0.4-1.3s-1-0.1-1.3 0.4l-0.6 1.2-1.2-0.6c-0.5-0.3-1-0.1-1.3 0.4s-0.1 1 0.4 1.3l1.2 0.6-0.6 1.2c-0.3 0.5-0.1 1 0.4 1.3s1 0.1 1.3-0.4l0.6-1.2 1.2 0.6c0.5 0.3 1 0.1 1.3-0.4s0.1-1.1-0.4-1.3z" fill="#CDCCCC"/>
<path d="m835.9 257.7c0.1 0.2 0.3 0.5 0.4 0.5 0.2 0.1 0.5 0.1 0.7 0l1.3-0.4 0.5 1.3c0.1 0.2 0.2 0.4 0.4 0.5 0.3 0.1 0.5 0.1 0.7 0 0.5-0.2 0.8-0.7 0.6-1.2l-0.4-1.3 1.3-0.4c0.5-0.2 0.8-0.7 0.6-1.2s-0.7-0.8-1.2-0.6l-1.3 0.4-0.5-1.3c-0.2-0.5-0.7-0.8-1.2-0.6s-0.8 0.7-0.6 1.2l0.4 1.3-1.3 0.4c-0.2 0.3-0.5 0.9-0.4 1.4z" fill="#CDCCCC"/>
<path d="m765.7 271.4c-0.2-0.5-0.7-0.8-1.2-0.6l-1.3 0.4-0.5-1.3c-0.2-0.5-0.7-0.8-1.2-0.6s-0.8 0.7-0.6 1.2l0.4 1.3-1.3 0.4c-0.5 0.2-0.8 0.7-0.6 1.2 0.1 0.2 0.3 0.5 0.4 0.5 0.3 0.1 0.5 0.1 0.7 0l1.3-0.4 0.5 1.3c0.1 0.2 0.2 0.4 0.4 0.5 0.3 0.1 0.5 0.1 0.7 0 0.5-0.2 0.8-0.7 0.6-1.2l-0.4-1.3 1.3-0.4c0.7 0 1-0.5 0.8-1z" fill="#CDCCCC"/>
<path d="m775.3 283.8c-0.6 1.1-2.2 0.2-1.7-0.9 0.7-1.1 2.3-0.2 1.7 0.9" fill="#CDCCCC"/>
<path d="m828.8 278.3c-0.6 1.1-2.2 0.2-1.7-0.9 0.6-1 2.3-0.2 1.7 0.9" fill="#CDCCCC"/>
<path d="m805 239.1c-0.6 1.1-2.2 0.2-1.7-0.9 0.6-1 2.3-0.2 1.7 0.9" fill="#CDCCCC"/>
<path d="m777.8 271.1c-9.2-8.4-13.3-17.1-10.4-22.6 4.5-8.7 23.9-7.7 43.2 2.3 0.5 0.3 1 0.1 1.3-0.4s0.1-1-0.4-1.3c-20.6-10.6-40.7-11.3-45.7-1.5-3.3 6.4 0.7 15.8 10.8 24.8 0.1 0 0.2 0.1 0.3 0.1 0.3 0.2 0.8 0.1 1.1-0.1 0.3-0.4 0.3-0.9-0.2-1.3z" fill="#CDCCCC"/>
<path d="m838.7 284.3c-0.5-0.3-1-0.1-1.3 0.4-4.5 8.7-23.9 7.7-43.2-2.3-1.2-0.6-2.3-1.2-3.3-1.8-0.4-0.2-1-0.1-1.3 0.4s-0.1 1 0.4 1.3c1.1 0.7 2.3 1.3 3.4 1.9 20.6 10.6 40.7 11.3 45.7 1.5 0.3-0.7 0.1-1.2-0.4-1.4z" fill="#CDCCCC"/>
<path d="m827.1 262c5.1 4.6 8.7 9.3 10.3 13.7 0.1 0.2 0.2 0.4 0.4 0.5 0.3 0.1 0.5 0.1 0.7 0 0.5-0.2 0.7-0.7 0.5-1.2-1.8-4.6-5.5-9.6-10.8-14.4-0.4-0.3-1-0.3-1.3 0.1s-0.3 1 0.2 1.3z" fill="#CDCCCC"/>
<path d="m788 248.6c-6.1 0-10.3 1.9-11.8 5.2-1.5 3.4-0.1 7.8 3.9 12.4 4.2 4.8 10.2 9.2 17 12.7 9.1 4.7 19.3 7.7 27.8 7.7 0.5 0 1-0.4 0.9-0.9 0-0.5-0.4-1-0.9-0.9-14.4 0-34-8.9-43.4-19.7-3.4-4-4.7-7.7-3.5-10.4 1.2-2.6 4.9-4.2 10.1-4.2 9.1 0 21.5 5.6 27.6 12.5 2.1 2.4 2.9 4.7 2.2 6.3s-2.9 2.5-6.2 2.5c-5.8 0-13.6-3.5-17.4-7.9-0.3-0.4-0.9-0.4-1.3-0.1s-0.5 0.9-0.1 1.3c4.1 4.7 12.5 8.6 18.7 8.5 4 0 6.8-1.3 7.8-3.6 1.1-2.3 0.2-5.2-2.5-8.3-6.3-7.3-19.3-13.2-28.9-13.1z" fill="#CDCCCC"/>
<path d="m800.6 263.7c-0.3 0.5-0.1 1 0.4 1.3 2 1 4 1.6 5.5 1.7 0.5 0 0.9-0.4 1-0.9 0-0.5-0.4-0.9-0.9-1-1.2 0-2.9-0.6-4.7-1.5-0.5-0.2-1.1 0-1.3 0.4z" fill="#CDCCCC"/>
<path d="m806 260.4c-0.6-0.4-1.2-0.8-2-1.2-2.2-1.2-4.5-1.8-6.1-1.7-0.5 0-0.9 0.5-0.8 1 0 0.3 0.2 0.6 0.4 0.8 0.2 0.1 0.3 0.2 0.5 0.1 1.2-0.1 3.2 0.5 5.1 1.5 0.7 0.3 1.2 0.6 1.8 1 0.4 0.3 1 0.2 1.3-0.3 0.4-0.4 0.3-1-0.2-1.2z" fill="#CDCCCC"/>

	<path d="m936 127.2c-1.8 7.5 1.4 15.2 7.9 19.3 2.3 1.5 4.8 2.3 7.5 2.7 0.7 0.1 1.4 0.1 2 0.1 4.1 0 8.1-1.4 11.3-4h0.1c0.3 0.1 0.5 0.2 0.8 0.3 1.7 0.6 3.3 0.9 4.6 1.1 0.5 0.1 0.9 0.1 1.4 0.1 1.9 0 3.1-0.5 3.8-1.6 1.3-2.1-0.2-5.3-4.5-9.7 0.6-2.7 0.7-5.5 0-8.1-1.1-4.7-3.9-8.7-7.9-11.2-2.3-1.5-4.8-2.3-7.5-2.7-0.7-0.1-1.4-0.1-2-0.1-4.1 0-8.1 1.4-11.3 4-2.8-1-5.1-1.5-6.9-1.5s-3.1 0.5-3.8 1.6c-1.6 2.6 1.5 6.7 4.5 9.7zm37.6 16.9c-0.1 0.2-0.5 0.6-2 0.6-1.3 0-3-0.3-5.1-1 0.8-0.9 1.5-1.8 2.1-2.7 0.6-1 1.1-2 1.6-3.1 3.5 3.7 3.8 5.7 3.4 6.2zm-38.3-26c1.3 0 3.1 0.3 5.1 1-0.8 0.8-1.5 1.8-2.1 2.7-0.6 1-1.1 2-1.6 3.1-3.2-3.5-3.9-5.5-3.4-6.3 0.2-0.3 1-0.5 2-0.5zm4.8 4.9c2.9-4.6 8-7.4 13.4-7.4 0.6 0 1.2 0 1.8 0.1 2.4 0.3 4.6 1.1 6.6 2.3 3.6 2.3 6.1 5.8 7 9.9s0.2 8.4-2 11.9c-0.7 1.1-1.6 2.2-2.6 3.1-4.2-1.6-8.9-4-13.7-7s-9-6.2-12.2-9.3c0.4-1.3 1-2.5 1.7-3.6zm-2.3 6c3.2 2.9 7.3 6 11.6 8.7 4.4 2.8 8.9 5.1 12.9 6.7-2.6 1.8-5.8 2.8-8.9 2.8-0.6 0-1.2 0-1.8-0.1-2.4-0.3-4.6-1.1-6.6-2.3-5.3-3.3-8.1-9.6-7.2-15.8z" fill="#CDCCCC"/>

<path d="m39.3 467.6c0.3-0.3 0.5-0.6 0.7-0.9 0.2 0.3 0.5 0.6 0.8 0.9s0.7 0.6 1 0.8c-0.4 0.2-0.7 0.5-1 0.8s-0.5 0.6-0.7 0.8c-0.2-0.3-0.4-0.6-0.7-0.8-0.3-0.3-0.7-0.6-1.1-0.9 0.3-0.1 0.7-0.3 1-0.7zm-3.6 1.8s1.4 0.6 2.2 1.4c0.6 0.6 1 1.6 1.2 2s0.5 0.7 1 0.7c0.4 0 0.8-0.3 1-0.7 0 0 0.4-1.2 1.2-2 0.6-0.6 1.8-1.2 2.2-1.4s0.7-0.6 0.6-1c0-0.4-0.3-0.8-0.7-1 0 0-1.2-0.4-2.1-1.3-0.6-0.6-1.1-1.7-1.2-2-0.1-0.4-0.5-0.7-1-0.7-0.4 0-0.8 0.2-1 0.6s-0.7 1.5-1.3 2.1c-0.8 0.8-2.1 1.3-2.1 1.3-0.4 0.2-0.7 0.5-0.7 1s0.3 0.9 0.7 1z" fill="#CDCCCC"/>
<path d="m25.8 490.9c-0.5 0.5-0.8 1-1.1 1.5-0.3-0.5-0.7-1-1.1-1.4-0.5-0.5-1.2-1-1.8-1.4 0.5-0.3 1.1-0.8 1.6-1.3 0.4-0.5 0.9-1 1.2-1.6 0.3 0.5 0.7 1.1 1.2 1.6s1.1 1 1.7 1.3c-0.6 0.3-1.2 0.8-1.7 1.3zm4.4-2.3s-1.6-0.6-2.8-1.8c-1-1-1.7-2.7-1.7-2.8-0.1-0.4-0.5-0.7-1-0.7-0.4 0-0.8 0.2-1 0.6-0.2 0.5-0.9 2-1.7 2.8-1.1 1.1-2.8 1.8-2.8 1.8-0.4 0.2-0.7 0.5-0.7 1 0 0.4 0.3 0.8 0.7 1 0 0 1.9 0.7 3 1.8 0.8 0.8 1.4 2.2 1.6 2.7 0.2 0.4 0.5 0.7 1 0.7 0.4 0 0.8-0.3 1-0.7 0 0 0.6-1.6 1.6-2.7 1-1 2.9-1.8 2.9-1.8 0.4-0.2 0.7-0.6 0.7-1-0.1-0.4-0.4-0.8-0.8-0.9z" fill="#CDCCCC"/>
<path d="m727.8 137.6c0.2-0.2 0.5-0.5 0.7-0.8 0.2 0.3 0.4 0.6 0.7 0.8 0.3 0.3 0.6 0.5 0.9 0.7-0.3 0.2-0.6 0.5-0.9 0.7-0.2 0.2-0.4 0.5-0.6 0.7-0.2-0.3-0.4-0.5-0.6-0.7-0.3-0.3-0.6-0.5-1-0.8 0.3-0.1 0.6-0.4 0.8-0.6zm-3.1 1.6s1.2 0.5 2 1.2c0.5 0.5 0.9 1.4 1 1.8s0.5 0.6 0.9 0.6 0.7-0.3 0.9-0.6c0 0 0.4-1.1 1.1-1.8 0.6-0.6 1.6-1.1 1.9-1.2 0.4-0.1 0.6-0.5 0.6-0.9s-0.3-0.7-0.6-0.9c0 0-1.1-0.4-1.9-1.2-0.5-0.5-1-1.5-1.1-1.8-0.1-0.4-0.5-0.6-0.9-0.6s-0.7 0.2-0.9 0.6c-0.1 0.3-0.6 1.3-1.1 1.8-0.7 0.7-1.8 1.2-1.9 1.2-0.4 0.1-0.6 0.5-0.6 0.9s0.2 0.7 0.6 0.9z" fill="#CDCCCC"/>
<path d="m794.7 114.2c-0.4 0.4-0.7 0.9-1 1.3-0.3-0.4-0.6-0.9-1-1.3-0.5-0.5-1-0.9-1.6-1.2 0.5-0.3 1-0.7 1.4-1.1s0.8-0.9 1.1-1.4c0.3 0.5 0.6 1 1.1 1.4 0.5 0.5 1 0.9 1.5 1.2-0.5 0.3-1 0.6-1.5 1.1zm3.9-2.1s-1.4-0.5-2.5-1.6c-0.9-0.9-1.5-2.4-1.5-2.4-0.1-0.4-0.5-0.6-0.8-0.6-0.4 0-0.7 0.2-0.9 0.6-0.2 0.5-0.8 1.8-1.5 2.5-1 1-2.5 1.6-2.5 1.6-0.4 0.1-0.6 0.5-0.6 0.9s0.2 0.7 0.6 0.9c0 0 1.7 0.7 2.6 1.6 0.7 0.7 1.2 2 1.4 2.4 0.1 0.4 0.5 0.6 0.9 0.6s0.7-0.3 0.9-0.6c0 0 0.5-1.4 1.4-2.4 0.9-0.9 2.6-1.6 2.6-1.6 0.4-0.1 0.6-0.5 0.6-0.9-0.1-0.5-0.4-0.8-0.7-1z" fill="#CDCCCC"/>
<path d="m759.7 156.8-0.4 0.4c-0.1-0.1-0.2-0.3-0.3-0.4-0.2-0.2-0.4-0.3-0.6-0.5 0.2-0.1 0.3-0.3 0.5-0.4 0.1-0.1 0.3-0.3 0.4-0.5 0.1 0.2 0.3 0.3 0.4 0.5l0.5 0.5c-0.1 0.1-0.3 0.3-0.5 0.4zm2.8-1.3s-0.8-0.3-1.4-0.9c-0.4-0.4-0.7-1.1-0.8-1.4-0.1-0.4-0.5-0.6-0.9-0.6s-0.7 0.2-0.9 0.6c-0.1 0.3-0.5 1-0.9 1.4-0.6 0.6-1.4 0.9-1.4 0.9-0.4 0.1-0.6 0.5-0.6 0.9s0.2 0.7 0.6 0.9c0.3 0.1 1 0.5 1.5 0.9 0.4 0.4 0.7 1.1 0.8 1.3 0.1 0.4 0.5 0.6 0.9 0.6s0.7-0.3 0.9-0.6c0.1-0.2 0.4-0.9 0.8-1.3s1.2-0.8 1.5-0.9c0.4-0.1 0.6-0.5 0.6-0.9-0.1-0.4-0.4-0.8-0.7-0.9z" fill="#CDCCCC"/>
<path d="m3.8 108.9c0.2-0.2 0.5-0.5 0.7-0.8 0.2 0.3 0.4 0.6 0.7 0.8 0.3 0.3 0.6 0.5 0.9 0.7-0.3 0.2-0.6 0.5-0.9 0.7-0.2 0.2-0.4 0.5-0.6 0.7-0.2-0.3-0.4-0.5-0.6-0.7-0.3-0.3-0.6-0.5-1-0.8 0.2-0.1 0.5-0.4 0.8-0.6zm-3.2 1.5s1.2 0.5 1.9 1.2c0.5 0.5 0.9 1.4 1 1.8s0.5 0.6 0.9 0.6 0.7-0.3 0.9-0.6c0 0 0.4-1.1 1.1-1.7 0.6-0.6 1.6-1 1.9-1.2 0.4-0.1 0.6-0.5 0.6-0.9s-0.3-0.7-0.6-0.8c0 0-1.1-0.4-1.8-1.2-0.5-0.5-1-1.5-1.1-1.8-0.1-0.4-0.5-0.6-0.9-0.6s-0.7 0.2-0.9 0.6c-0.2 0.2-0.6 1.2-1.2 1.7-0.7 0.7-1.8 1.2-1.8 1.2-0.4 0.1-0.6 0.5-0.6 0.9s0.2 0.7 0.6 0.8z" fill="#CDCCCC"/>
<path d="m19.5 117.8c-0.4 0.4-0.7 0.9-1 1.3-0.3-0.4-0.6-0.9-1-1.3-0.5-0.5-1-0.9-1.6-1.2 0.5-0.3 1-0.7 1.4-1.1s0.8-0.9 1.1-1.4c0.3 0.5 0.6 1 1.1 1.4 0.5 0.5 1 0.9 1.5 1.1-0.5 0.3-1 0.7-1.5 1.2zm3.9-2.1s-1.4-0.5-2.5-1.6c-0.9-0.9-1.5-2.4-1.5-2.4-0.1-0.4-0.5-0.6-0.8-0.6-0.4 0-0.7 0.2-0.9 0.6-0.2 0.5-0.8 1.8-1.5 2.5-1 1-2.5 1.6-2.5 1.6-0.4 0.1-0.6 0.5-0.6 0.9s0.2 0.7 0.6 0.9c0 0 1.7 0.7 2.6 1.6 0.7 0.7 1.2 1.9 1.4 2.4 0.1 0.4 0.5 0.6 0.9 0.6s0.7-0.3 0.9-0.6c0 0 0.5-1.4 1.4-2.4 0.9-0.9 2.6-1.6 2.6-1.6 0.4-0.1 0.6-0.5 0.6-0.9-0.1-0.5-0.4-0.9-0.7-1z" fill="#CDCCCC"/>
<path d="m10.3 129.6-0.4 0.4c-0.1-0.1-0.2-0.3-0.3-0.4-0.2-0.2-0.4-0.3-0.6-0.5 0.2-0.1 0.3-0.3 0.5-0.4 0.1-0.1 0.3-0.3 0.4-0.5 0.1 0.2 0.3 0.3 0.4 0.5l0.5 0.5c-0.1 0.1-0.3 0.2-0.5 0.4zm2.8-1.4s-0.8-0.3-1.4-0.9c-0.4-0.4-0.7-1.1-0.8-1.4-0.1-0.4-0.5-0.6-0.9-0.6s-0.7 0.2-0.9 0.6c-0.1 0.3-0.5 1-0.9 1.4-0.6 0.6-1.4 0.9-1.4 0.9-0.4 0.1-0.6 0.5-0.6 0.9s0.2 0.7 0.6 0.9c0.3 0.1 1 0.5 1.5 0.9 0.4 0.4 0.7 1.1 0.8 1.3 0.1 0.4 0.5 0.6 0.9 0.6s0.7-0.3 0.9-0.6c0.1-0.2 0.4-0.9 0.8-1.3s1.2-0.8 1.5-0.9c0.4-0.1 0.6-0.5 0.6-0.9-0.1-0.4-0.4-0.7-0.7-0.9z" fill="#CDCCCC"/>
<path d="m903.2 118.4c-0.4 0-0.7 0.1-1.1 0.1 0.1-0.4 0.1-0.7 0.1-1.1s0-0.8-0.1-1.2c0.4 0.1 0.8 0.1 1.2 0.1s0.7 0 1-0.1c-0.1 0.3-0.1 0.7-0.1 1 0 0.4 0.1 0.9 0.1 1.3-0.3 0-0.7-0.1-1.1-0.1zm3.6 1.2s-0.6-1.3-0.6-2.4c0-0.7 0.4-1.8 0.6-2.1 0.2-0.4 0.1-0.8-0.2-1.1s-0.8-0.4-1.1-0.2c0 0-1.1 0.5-2.1 0.5-0.9 0-2-0.4-2.4-0.6s-0.8-0.1-1.1 0.2-0.4 0.8-0.2 1.1c0 0 0.5 1.1 0.5 2.3 0 0.8-0.4 1.9-0.5 2.2-0.2 0.4-0.1 0.8 0.2 1.1s0.7 0.4 1.1 0.2c0.4-0.1 1.5-0.5 2.3-0.5 1.1 0 2.3 0.5 2.3 0.5 0.4 0.2 0.8 0.1 1.1-0.2 0.2-0.2 0.3-0.6 0.1-1z" fill="#CDCCCC"/>
<path d="m898 99.7c0.6 0 1.2-0.1 1.7-0.2-0.1 0.5-0.2 1.1-0.2 1.7 0 0.7 0.1 1.4 0.3 2.1-0.6-0.1-1.3-0.2-1.9-0.2s-1.3 0.1-1.9 0.2c0.1-0.6 0.2-1.2 0.2-1.9s-0.1-1.4-0.2-2c0.6 0.2 1.3 0.3 2 0.3zm-4.5-1.4s0.7 1.5 0.7 3.1c0 1.4-0.7 3-0.7 3-0.2 0.4-0.1 0.8 0.2 1.1s0.7 0.4 1.1 0.2c0.5-0.2 2-0.7 3-0.7 1.5 0 3.1 0.7 3.1 0.7 0.4 0.2 0.8 0.1 1.1-0.2s0.4-0.7 0.2-1.1c0 0-0.8-1.7-0.8-3.2 0-1 0.5-2.4 0.8-2.9 0.2-0.4 0.1-0.8-0.2-1.1s-0.8-0.4-1.1-0.2c0 0-1.5 0.7-2.9 0.7s-3.2-0.7-3.2-0.7c-0.4-0.2-0.8-0.1-1.1 0.2s-0.4 0.7-0.2 1.1z" fill="#CDCCCC"/>
<path d="m914 97.7h0.6v0.6c0 0.3 0 0.5 0.1 0.8-0.2 0-0.5-0.1-0.7-0.1s-0.4 0-0.7 0.1c0-0.2 0-0.4 0.1-0.7 0-0.3 0-0.5-0.1-0.7 0.2-0.1 0.4 0 0.7 0zm-3.1-1.1s0.4 0.8 0.4 1.7c0 0.6-0.3 1.4-0.4 1.7-0.2 0.4-0.1 0.8 0.2 1.1s0.7 0.4 1.1 0.2c0.3-0.1 1.1-0.4 1.7-0.4 0.9 0 1.7 0.4 1.7 0.4 0.4 0.2 0.8 0.1 1.1-0.2s0.4-0.7 0.2-1.1c-0.1-0.3-0.4-1.1-0.4-1.8 0-0.6 0.3-1.4 0.4-1.6 0.2-0.4 0.1-0.8-0.2-1.1s-0.8-0.4-1.1-0.2c-0.2 0.1-1 0.4-1.6 0.4s-1.5-0.3-1.8-0.4c-0.4-0.2-0.8-0.1-1.1 0.2-0.4 0.3-0.4 0.7-0.2 1.1z" fill="#CDCCCC"/>
<path d="m139.6 293c-0.3 0.2-0.7 0.5-1 0.8-0.2 0.2-0.4 0.5-0.6 0.7-0.2-0.3-0.4-0.5-0.6-0.8-0.3-0.3-0.6-0.5-0.9-0.7 0.3-0.2 0.6-0.5 0.9-0.7 0.3-0.3 0.5-0.5 0.7-0.8 0.2 0.3 0.4 0.6 0.7 0.8 0.2 0.2 0.5 0.5 0.8 0.7zm2.9 0c0-0.4-0.2-0.7-0.6-0.9 0 0-1.1-0.4-1.9-1.2-0.5-0.5-1-1.5-1.1-1.9-0.2-0.4-0.5-0.6-0.9-0.6s-0.7 0.3-0.9 0.6c-0.1 0.3-0.5 1.3-1.1 1.8-0.8 0.8-1.9 1.2-1.9 1.2-0.4 0.1-0.6 0.5-0.6 0.9s0.2 0.8 0.6 0.9 1.4 0.6 1.9 1.2c0.7 0.7 1.1 1.8 1.1 1.8 0.1 0.4 0.5 0.6 0.9 0.6s0.7-0.2 0.9-0.6c0.1-0.3 0.5-1.3 1-1.8 0.7-0.7 2-1.2 2-1.2 0.4-0.1 0.6-0.4 0.6-0.8z" fill="#CDCCCC"/>
<path d="m121.2 300.1c0.5-0.3 1-0.7 1.5-1.2 0.4-0.4 0.8-0.9 1.1-1.4 0.3 0.5 0.7 1 1.1 1.4 0.5 0.5 1 0.8 1.5 1.1-0.5 0.3-1.1 0.7-1.6 1.2-0.4 0.4-0.7 0.8-1 1.3-0.3-0.4-0.6-0.9-1-1.3-0.6-0.4-1.1-0.8-1.6-1.1zm-3.1 0c0 0.4 0.2 0.8 0.6 0.9 0 0 1.7 0.7 2.6 1.6 1 1 1.5 2.4 1.5 2.4 0.1 0.4 0.5 0.6 0.9 0.6s0.7-0.2 0.9-0.6 0.7-1.7 1.4-2.4c1-1 2.6-1.6 2.7-1.7 0.4-0.1 0.6-0.5 0.6-0.9s-0.2-0.7-0.6-0.9c0 0-1.5-0.6-2.5-1.6-0.7-0.7-1.4-2.1-1.6-2.5-0.1-0.4-0.5-0.6-0.9-0.6s-0.7 0.2-0.9 0.6c0 0-0.6 1.6-1.5 2.5-1.1 1.1-2.5 1.6-2.5 1.6-0.4 0.2-0.6 0.6-0.7 1z" fill="#CDCCCC"/>
<path d="m158.2 305.1c0.2-0.1 0.4-0.3 0.5-0.5 0.1-0.1 0.3-0.3 0.4-0.5 0.1 0.2 0.3 0.3 0.4 0.5 0.2 0.2 0.3 0.3 0.5 0.4-0.2 0.1-0.4 0.3-0.6 0.5-0.1 0.1-0.2 0.3-0.3 0.4-0.1-0.1-0.2-0.3-0.4-0.4-0.1-0.1-0.3-0.2-0.5-0.4zm-2.8 0c0 0.4 0.2 0.8 0.6 0.9 0.3 0.1 1.1 0.5 1.5 0.9s0.7 1.1 0.8 1.3c0.1 0.4 0.5 0.6 0.9 0.6s0.7-0.2 0.9-0.6c0.1-0.2 0.4-1 0.8-1.4 0.5-0.5 1.2-0.8 1.5-0.9 0.4-0.1 0.6-0.5 0.6-0.9s-0.2-0.7-0.6-0.9c0 0-0.9-0.3-1.4-0.9-0.4-0.4-0.8-1.2-0.9-1.4-0.1-0.4-0.5-0.5-0.9-0.6-0.4 0-0.7 0.3-0.9 0.6-0.1 0.2-0.4 1-0.8 1.4-0.6 0.6-1.4 0.9-1.4 0.9-0.5 0.2-0.7 0.6-0.7 1z" fill="#CDCCCC"/>
<path d="m183.9 243.6 0.6-0.6c0.2-0.2 0.3-0.4 0.5-0.6 0.1 0.2 0.3 0.4 0.5 0.6s0.4 0.4 0.6 0.5c-0.2 0.2-0.5 0.4-0.7 0.6-0.1 0.2-0.3 0.3-0.4 0.5-0.1-0.2-0.3-0.4-0.4-0.5-0.2-0.1-0.5-0.3-0.7-0.5zm-3.5 0c0 0.5 0.3 0.9 0.7 1.1 0.3 0.1 1.3 0.6 1.8 1.1s0.9 1.4 1 1.6c0.2 0.5 0.6 0.8 1.1 0.8s0.9-0.3 1.1-0.7c0.1-0.3 0.5-1.2 1-1.7 0.6-0.6 1.5-1 1.8-1.1 0.4-0.2 0.7-0.6 0.7-1.1s-0.3-0.9-0.7-1.1c0 0-1-0.4-1.7-1.1-0.5-0.5-0.9-1.4-1.1-1.7-0.2-0.4-0.6-0.7-1.1-0.7s-0.9 0.3-1 0.7c-0.1 0.3-0.5 1.2-1 1.7-0.7 0.7-1.7 1.1-1.7 1.1-0.5 0.2-0.9 0.6-0.9 1.1z" fill="#CDCCCC"/>
<path d="m912.8 397.6c0.4-0.4 0.8-0.9 1.1-1.4 0.3 0.5 0.6 1 1 1.3 0.5 0.5 1.1 0.9 1.7 1.3-0.5 0.3-1 0.7-1.5 1.2-0.4 0.4-0.8 1-1.1 1.5-0.3-0.5-0.7-1-1.1-1.5-0.5-0.5-1.1-0.9-1.6-1.2 0.5-0.3 1.1-0.7 1.5-1.2zm-4.1 2.2s1.5 0.5 2.7 1.7c1 1 1.6 2.6 1.6 2.6 0.1 0.4 0.5 0.6 0.9 0.6s0.8-0.2 0.9-0.6c0.2-0.5 0.9-1.9 1.6-2.6 1.1-1.1 2.6-1.7 2.7-1.7 0.4-0.1 0.6-0.5 0.6-0.9s-0.2-0.8-0.6-0.9c0 0-1.8-0.7-2.8-1.7-0.7-0.7-1.3-2.1-1.5-2.5-0.1-0.4-0.5-0.6-0.9-0.6s-0.8 0.3-0.9 0.7c0 0-0.5 1.5-1.5 2.5s-2.7 1.7-2.8 1.7c-0.4 0.2-0.6 0.5-0.6 0.9 0 0.3 0.2 0.7 0.6 0.8z" fill="#CDCCCC"/>
<path d="m922.6 385 0.4-0.4c0.1 0.1 0.2 0.3 0.4 0.4 0.2 0.2 0.4 0.4 0.6 0.5-0.2 0.1-0.4 0.3-0.5 0.5-0.1 0.1-0.3 0.3-0.4 0.5-0.1-0.2-0.3-0.3-0.4-0.5-0.2-0.2-0.4-0.3-0.6-0.5l0.5-0.5zm-2.9 1.5s0.9 0.3 1.5 0.9c0.4 0.4 0.8 1.2 0.9 1.5 0.1 0.4 0.5 0.6 0.9 0.6s0.8-0.2 0.9-0.6c0.1-0.3 0.5-1.1 0.9-1.5 0.6-0.6 1.5-0.9 1.5-0.9 0.4-0.1 0.6-0.5 0.6-0.9s-0.2-0.8-0.6-0.9c-0.3-0.1-1.1-0.5-1.6-1-0.4-0.4-0.7-1.2-0.8-1.4-0.1-0.4-0.5-0.6-0.9-0.6s-0.8 0.3-0.9 0.7c-0.1 0.2-0.4 0.9-0.9 1.4s-1.3 0.9-1.6 1c-0.4 0.2-0.6 0.5-0.6 0.9 0 0.3 0.3 0.6 0.7 0.8z" fill="#CDCCCC"/>
<path d="m984.9 160.2c-0.4 0-0.8 0.1-1.1 0.1 0.1-0.4 0.1-0.8 0.1-1.1 0-0.4 0-0.9-0.1-1.3 0.4 0.1 0.8 0.1 1.3 0.1 0.4 0 0.7 0 1.1-0.1-0.1 0.3-0.1 0.7-0.1 1 0 0.4 0.1 0.9 0.2 1.3-0.6 0.1-1 0-1.4 0zm3.6 1.2s-0.6-1.3-0.6-2.4c0-0.8 0.4-1.8 0.6-2.2s0.1-0.8-0.2-1.1-0.8-0.4-1.2-0.2c0 0-1.1 0.5-2.2 0.5-0.9 0-2-0.4-2.4-0.6s-0.8-0.1-1.1 0.2-0.4 0.8-0.2 1.1c0 0 0.5 1.1 0.5 2.3 0 0.8-0.4 1.9-0.6 2.2-0.2 0.4-0.1 0.8 0.2 1.1s0.7 0.4 1.1 0.2 1.5-0.5 2.3-0.5c1.2 0 2.3 0.5 2.3 0.5 0.4 0.2 0.8 0.1 1.1-0.2 0.5 0 0.6-0.5 0.4-0.9z" fill="#CDCCCC"/>
<path d="m71.1 162.1c0.3-0.3 0.5-0.6 0.7-0.9 0.2 0.3 0.5 0.6 0.8 0.9s0.7 0.6 1 0.8c-0.4 0.2-0.7 0.5-1 0.8s-0.5 0.6-0.7 0.8c-0.2-0.3-0.4-0.6-0.7-0.8-0.3-0.3-0.7-0.6-1.1-0.9 0.4-0.2 0.7-0.4 1-0.7zm-3.5 1.8s1.4 0.6 2.2 1.4c0.6 0.6 1 1.6 1.2 2s0.5 0.7 1 0.7c0.4 0 0.8-0.3 1-0.7 0 0 0.4-1.2 1.2-2 0.6-0.6 1.8-1.2 2.2-1.4s0.7-0.6 0.6-1c0-0.4-0.3-0.8-0.7-1 0 0-1.2-0.4-2.1-1.3-0.6-0.6-1.1-1.7-1.2-2-0.1-0.4-0.5-0.7-1-0.7-0.4 0-0.8 0.2-1 0.6s-0.7 1.5-1.3 2.1c-0.8 0.8-2.1 1.3-2.1 1.3-0.4 0.2-0.7 0.5-0.7 1 0 0.4 0.2 0.8 0.7 1z" fill="#CDCCCC"/>
<path d="m317.2 230.8c0.3-0.3 0.5-0.6 0.7-0.9 0.2 0.3 0.5 0.6 0.8 0.9s0.7 0.6 1 0.8c-0.4 0.2-0.7 0.5-1 0.8s-0.5 0.6-0.7 0.8c-0.2-0.3-0.4-0.6-0.7-0.8-0.3-0.3-0.7-0.6-1.1-0.9 0.4-0.1 0.7-0.4 1-0.7zm-3.6 1.8s1.4 0.6 2.2 1.4c0.6 0.6 1 1.6 1.2 2s0.5 0.7 1 0.7c0.4 0 0.8-0.3 1-0.7 0 0 0.4-1.2 1.2-2 0.6-0.6 1.8-1.2 2.2-1.4s0.7-0.6 0.6-1c0-0.4-0.3-0.8-0.7-1 0 0-1.2-0.4-2.1-1.3-0.6-0.6-1.1-1.7-1.2-2-0.1-0.4-0.5-0.7-1-0.7-0.4 0-0.8 0.2-1 0.6s-0.7 1.5-1.3 2.1c-0.8 0.8-2.1 1.3-2.1 1.3-0.4 0.2-0.7 0.5-0.7 1 0.1 0.5 0.3 0.9 0.7 1z" fill="#CDCCCC"/>
<path d="m18.9 332.2c0.3-0.3 0.5-0.6 0.7-0.9 0.2 0.3 0.5 0.6 0.8 0.9s0.7 0.6 1 0.8c-0.4 0.2-0.7 0.5-1 0.8s-0.5 0.6-0.7 0.8c-0.2-0.3-0.4-0.6-0.7-0.8-0.3-0.3-0.7-0.6-1.1-0.9 0.3-0.1 0.7-0.4 1-0.7zm-3.6 1.8s1.4 0.6 2.2 1.4c0.6 0.6 1 1.6 1.2 2s0.5 0.7 1 0.7c0.4 0 0.8-0.3 1-0.7 0 0 0.4-1.2 1.2-2 0.6-0.6 1.8-1.2 2.2-1.4s0.7-0.6 0.6-1c0-0.4-0.3-0.8-0.7-1 0 0-1.2-0.4-2.1-1.3-0.6-0.6-1.1-1.7-1.2-2-0.1-0.4-0.5-0.7-1-0.7-0.4 0-0.8 0.2-1 0.6s-0.7 1.5-1.3 2.1c-0.8 0.8-2.1 1.3-2.1 1.3-0.4 0.2-0.7 0.5-0.7 1s0.3 0.9 0.7 1z" fill="#CDCCCC"/>
<path d="m211.4 406.7c-12.3 0-22.4-10-22.4-22.4 0-10.3 7.1-19.1 16.7-21.6-4.3 4.6-6.7 10.7-6.7 17.1 0 12.7 9.5 23.3 21.8 24.9-2.9 1.3-6.1 2-9.4 2zm14-4.6h-0.4-0.9c-12.3 0-22.4-10-22.4-22.4 0-7.2 3.3-13.7 9.1-18 0.5-0.4 0.7-1 0.5-1.5-0.2-0.6-0.8-0.9-1.3-0.9-13.2 0.8-23.6 11.7-23.6 25 0 13.8 11.2 25.1 25.1 25.1 5.4 0 10.5-1.7 14.8-4.9 0.5-0.4 0.7-1 0.5-1.5-0.3-0.6-0.9-1-1.4-0.9z" fill="#CDCCCC"/>
<path d="m225.5 348.1c0.3-0.3 0.5-0.5 0.7-0.8 0.2 0.3 0.4 0.6 0.7 0.8 0.3 0.3 0.6 0.6 0.9 0.8-0.3 0.2-0.7 0.5-0.9 0.8-0.2 0.2-0.5 0.5-0.6 0.8-0.2-0.3-0.4-0.5-0.6-0.8-0.3-0.3-0.7-0.6-1-0.8 0.2-0.3 0.5-0.5 0.8-0.8zm-3.3 1.6s1.3 0.5 2 1.2c0.5 0.5 0.9 1.5 1.1 1.8 0.1 0.4 0.5 0.6 0.9 0.6s0.8-0.3 0.9-0.7c0 0 0.4-1.1 1.1-1.8 0.6-0.6 1.6-1.1 2-1.2 0.4-0.2 0.6-0.5 0.6-0.9s-0.3-0.8-0.7-0.9c0 0-1.1-0.4-1.9-1.2-0.6-0.6-1-1.5-1.1-1.9s-0.5-0.6-0.9-0.6-0.8 0.2-0.9 0.6-0.7 1.4-1.2 1.9c-0.8 0.8-1.9 1.2-1.9 1.2-0.4 0.1-0.6 0.5-0.6 0.9-0.1 0.5 0.2 0.9 0.6 1z" fill="#CDCCCC"/>
<path d="m241.8 357.3c-0.4 0.4-0.8 0.9-1 1.3-0.3-0.5-0.6-0.9-1-1.3-0.5-0.5-1.1-0.9-1.6-1.2 0.5-0.3 1-0.7 1.5-1.2 0.4-0.4 0.8-0.9 1.1-1.4 0.3 0.5 0.7 1 1.1 1.4 0.5 0.5 1 0.9 1.5 1.2-0.5 0.4-1.1 0.8-1.6 1.2zm4-2.1s-1.5-0.5-2.6-1.6c-0.9-0.9-1.5-2.5-1.5-2.5-0.1-0.4-0.5-0.6-0.9-0.6s-0.8 0.2-0.9 0.6c-0.2 0.5-0.9 1.8-1.6 2.6-1 1-2.6 1.6-2.6 1.6-0.4 0.1-0.6 0.5-0.6 0.9s0.2 0.8 0.6 0.9c0 0 1.7 0.7 2.7 1.7 0.7 0.7 1.3 2 1.5 2.5 0.1 0.4 0.5 0.6 0.9 0.6s0.8-0.3 0.9-0.7c0 0 0.5-1.5 1.5-2.5s2.7-1.7 2.7-1.7c0.4-0.2 0.6-0.5 0.6-0.9s-0.3-0.7-0.7-0.9z" fill="#CDCCCC"/>
<path d="m232.3 369.6-0.4 0.4c-0.1-0.1-0.2-0.3-0.4-0.4-0.2-0.2-0.4-0.4-0.6-0.5 0.2-0.1 0.4-0.3 0.5-0.5 0.1-0.1 0.3-0.3 0.4-0.5 0.1 0.2 0.3 0.3 0.4 0.5 0.2 0.2 0.4 0.3 0.5 0.5 0 0.2-0.2 0.4-0.4 0.5zm2.8-1.4s-0.8-0.3-1.5-0.9c-0.4-0.4-0.8-1.2-0.9-1.4-0.1-0.4-0.5-0.6-0.9-0.6s-0.8 0.2-0.9 0.6c-0.1 0.3-0.5 1.1-0.9 1.5-0.6 0.6-1.5 0.9-1.5 0.9-0.4 0.1-0.6 0.5-0.6 0.9s0.2 0.8 0.6 0.9c0.3 0.1 1.1 0.5 1.6 1 0.4 0.4 0.7 1.2 0.8 1.4 0.1 0.4 0.5 0.6 0.9 0.6s0.8-0.3 0.9-0.7c0.1-0.2 0.4-0.9 0.8-1.4 0.4-0.4 1.3-0.8 1.5-0.9 0.4-0.2 0.6-0.5 0.6-0.9 0.2-0.5-0.1-0.8-0.5-1z" fill="#CDCCCC"/>
<path d="m266.3 409.4-1.7-1.7 1.7-1.7 1.7 1.7-1.7 1.7zm5.4-2.8h-1.7l-2.6-2.6v-1.7c0-0.6-0.5-1.1-1.1-1.1s-1.1 0.5-1.1 1.1v1.7l-2.6 2.6h-1.7c-0.6 0-1.1 0.5-1.1 1.1s0.5 1.1 1.1 1.1h1.7l2.6 2.6v1.7c0 0.6 0.5 1.1 1.1 1.1s1.1-0.5 1.1-1.1v-1.7l2.6-2.6h1.7c0.6 0 1.1-0.5 1.1-1.1s-0.5-1.1-1.1-1.1z" fill="#CDCCCC"/>
<path d="m262 413.1c0 1.4-2.2 1.4-2.2 0s2.2-1.4 2.2 0" fill="#CDCCCC"/>
<path d="m731.4 108.4c-1.5 0-2.9-0.7-3.8-1.8-1.7-2.1-1.4-5.2 0.7-7l0.4-0.3-5.6-10.3h-0.3-0.2c-1.1 0-2.1-0.5-2.8-1.4-0.3-0.4-0.5-0.8-0.5-0.9l0.1-0.4h-0.4l-14.2-3-0.1 0.2c-0.2 0.4-0.7 0.9-1.1 1.3-0.9 0.7-2 1.1-3.1 1.1-1.5 0-2.9-0.7-3.8-1.8-0.7-0.9-1.1-2.2-1.1-3.6v-0.3l-10.4-3.5-0.2 0.3c-0.2 0.3-0.6 0.8-1 1.2-0.8 0.6-1.8 1-2.8 1-1.4 0-2.7-0.6-3.5-1.6l-0.5-0.6-16.5 5.7v0.3c0.2 2.1-0.6 4.1-2.2 5.4-1.1 0.9-2.5 1.4-4 1.4-1.9 0-3.7-0.9-4.9-2.3-1.1-1.3-1.6-3-1.4-4.6 0.2-1.7 1-3.2 2.3-4.2 1.1-0.9 2.5-1.4 4-1.4 1.9 0 3.7 0.8 4.9 2.3 0.1 0.1 0.1 0.2 0.2 0.3 0.1 0.2 0.2 0.3 0.3 0.5l0.2 0.2 16.4-5.6v-0.3c0.1-1.1 0.5-2.6 1.7-3.6 0.8-0.6 1.8-1 2.8-1 1.4 0 2.7 0.6 3.5 1.6 0.6 0.8 1 1.7 1 2.5v0.3l10.8 3.6 0.2-0.3c0.2-0.3 0.5-0.6 0.9-0.9 0.9-0.7 2-1.1 3.1-1.1 1.5 0 2.9 0.7 3.8 1.8 0.7 0.8 1.1 1.9 1.1 3v0.3l14 3 0.3-0.5c0.3-0.4 0.5-0.7 0.8-0.9 0.7-0.5 1.4-0.8 2.3-0.8 1.1 0 2.1 0.5 2.8 1.3l0.3 0.3 30.8-7.9v-0.3c0.2-1.6 0.9-2.9 2.2-3.9 1.1-0.9 2.4-1.4 3.8-1.4 1.8 0 3.6 0.8 4.8 2.3 1.1 1.3 1.6 3 1.4 4.6-0.2 1.7-1 3.2-2.3 4.2-0.5 0.4-1.1 0.7-1.6 0.9l-0.2 0.1 0.3 11.1 0.3 0.1c1.1 0.4 2 0.9 2.6 1.6 0.8 1 1.2 2.3 1.1 3.6s-0.8 2.5-1.8 3.3c-0.9 0.7-2 1.1-3.1 1.1-1.5 0-2.9-0.7-3.8-1.8 0 0 0-0.1-0.1-0.1-0.1-0.2-0.2-0.4-0.3-0.5l-0.1-0.2-23.5 4.1-0.1 0.2c-0.4 1.1-0.9 2-1.6 2.6-1.1 1-2.2 1.4-3.3 1.4zm0.1-7.6c-0.6 0-1.3 0.2-1.8 0.6-1.2 1-1.4 2.7-0.4 3.9 0.5 0.7 1.3 1 2.2 1 0.6 0 1.3-0.2 1.8-0.6 0.6-0.5 1.1-1.3 1.1-2.1 0-0.7-0.2-1.4-0.7-1.8-0.6-0.7-1.4-1-2.2-1zm0.2-2.4c1.4 0 2.7 0.7 3.7 1.9 0.4 0.5 0.8 1.2 0.9 1.7l0.1 0.4 23-3.9v-0.3c0.1-1.5 0.7-2.9 1.9-3.8 0.5-0.4 1.2-0.8 1.7-0.9l0.3-0.1-0.3-11.2h-0.4c-1.8-0.1-3.4-0.9-4.5-2.3-0.5-0.7-1-1.4-1.2-2.1l-0.1-0.4-30.3 7.8v0.3c0 0.7-0.3 1.4-1 2.2l-0.2 0.2 5.5 10.5h0.3 0.6zm32.7-3c-0.6 0-1.3 0.2-1.8 0.6-0.6 0.5-1 1.1-1 1.9-0.1 0.7 0.1 1.5 0.6 2 0.5 0.7 1.3 1 2.1 1 0.6 0 1.3-0.2 1.8-0.6 0.6-0.5 1-1.3 1-2.1 0-0.7-0.2-1.4-0.7-1.8-0.4-0.6-1.1-1-2-1zm-110.1-16.2c-1 0-1.9 0.3-2.6 0.9-0.9 0.7-1.4 1.7-1.5 2.8s0.2 2.2 0.9 3c0.8 1 2 1.5 3.2 1.5 1 0 1.9-0.3 2.6-0.9 0.9-0.7 1.4-1.7 1.5-2.8s-0.2-2.2-0.9-3c-0.8-1-2-1.5-3.2-1.5zm68.5 4.7c-0.3 0-0.6 0.1-0.9 0.3s-0.5 0.6-0.5 1 0.1 0.8 0.3 1.1c0.3 0.3 0.7 0.5 1.1 0.5 0.3 0 0.6-0.1 0.9-0.3s0.5-0.6 0.5-1-0.1-0.8-0.3-1.1c-0.3-0.3-0.7-0.5-1.1-0.5zm-22.5-5.9c-0.6 0-1.3 0.2-1.8 0.6-1.2 1-1.4 2.7-0.4 3.9 0.5 0.7 1.3 1 2.1 1 0.6 0 1.3-0.2 1.8-0.6 0.6-0.5 1-1.1 1-1.9 0.1-0.7-0.1-1.5-0.6-2-0.5-0.6-1.3-1-2.1-1zm62.7-6c-1 0-1.9 0.3-2.6 0.9-0.9 0.7-1.4 1.7-1.5 2.8s0.2 2.2 0.9 3c0.8 1 2 1.5 3.2 1.5 1 0 1.9-0.3 2.6-0.9 1.7-1.4 2-4.1 0.6-5.8-0.8-0.9-2-1.5-3.2-1.5zm-82.2 0c-0.5 0-1.1 0.2-1.5 0.5-0.5 0.4-0.8 0.9-0.8 1.6-0.1 0.6 0.1 1.2 0.5 1.7s1.1 0.8 1.8 0.8c0.5 0 1.1-0.2 1.5-0.5 0.5-0.4 0.8-1 0.8-1.6 0.1-0.6-0.1-1.2-0.5-1.7s-1.1-0.8-1.8-0.8z" fill="#CDCCCC"/>
<g fill="#CDCCCC">
	<path d="m140.6 265c-1.1 0-2.1-0.4-2.8-1-1.2-1.2-1.4-3.2-0.4-5.6 0.2-0.6 0.5-1.2 0.9-1.9l-4.6-4.6c-0.1 0.6 0 1.1 0.3 1.3 0.4 0.4 0.4 1 0 1.4-0.2 0.2-0.4 0.3-0.7 0.3s-0.5-0.1-0.7-0.3l-9.1-9.1c-1-1-1.2-2.5-0.5-4.4 0.6-1.6 1.7-3.4 3.2-4.9 2.2-2.2 4.9-3.6 6.9-3.6 0.7 0 1.4 0.2 1.9 0.5 0.3 0.1 0.5 0.2 0.6 0.3l9.1 9.1c0.2 0.2 0.3 0.4 0.3 0.7s-0.1 0.5-0.3 0.7l-0.1 0.1c-0.2 0.2-0.4 0.3-0.7 0.3s-0.5-0.1-0.7-0.3c-0.3-0.3-0.7-0.3-1-0.3h-0.1l4.5 4.5c1.8-1 3.4-1.5 4.8-1.5 1.1 0 2.1 0.4 2.8 1 1.2 1.2 1.4 3.2 0.4 5.6-0.7 1.9-2.1 4-3.9 5.9l2.3 2.3c0.2 0.2 0.3 0.4 0.3 0.7s-0.1 0.5-0.3 0.7-0.4 0.3-0.7 0.3-0.5-0.1-0.7-0.3l-2.3-2.3c-3 2.7-6.2 4.4-8.7 4.4zm10.7-16.5c-1.8 0-5 1.4-8.1 4.5-1.9 1.9-3.4 4-4.1 6-0.6 1.7-0.6 3 0 3.6 0.3 0.3 0.8 0.5 1.4 0.5 1.6 0 4.5-1.2 7.4-3.9l-1.7-1.7c-0.2-0.2-0.3-0.4-0.3-0.7s0.1-0.5 0.3-0.7 0.4-0.3 0.7-0.3 0.5 0.1 0.7 0.3l1.7 1.7c1.6-1.7 2.8-3.6 3.4-5.3s0.6-3 0-3.6c-0.3-0.2-0.7-0.4-1.4-0.4zm-12 6.2c0.7-1.1 1.6-2.1 2.6-3 0.9-0.9 2-1.8 3-2.6l-5-5c-0.8 0.4-2 1.1-3.3 2.4-1 1-1.8 2.1-2.3 3.2l5 5zm-6.2-20.3c-1.2 0-3.3 0.8-5.6 3-1.3 1.3-2.3 2.8-2.8 4.1-0.4 1.1-0.3 2 0.1 2.4l7 7 0.1-0.4c0-0.2 0.1-0.3 0.2-0.5 0.6-1.6 1.7-3.4 3.2-4.9 1.7-1.7 3.7-3 5.6-3.4l0.4-0.1-6.7-6.7c-0.2 0-0.3-0.1-0.4-0.2-0.3-0.2-0.7-0.3-1.1-0.3z"/>
	<path d="m151.8 262.7c0.1 0.1 0.3 0.2 0.5 0.2s0.4-0.1 0.5-0.2c0.3-0.3 0.3-0.8 0-1.1l-2.4-2.4c1.8-1.9 3.2-4 3.9-6 0.9-2.4 0.7-4.3-0.4-5.4-0.6-0.6-1.5-1-2.6-1-1.4 0-3.1 0.6-4.8 1.5l-4.9-4.9h0.5c0.4 0 0.8 0.1 1.2 0.4 0.1 0.1 0.3 0.2 0.5 0.2s0.4-0.1 0.5-0.2l0.1-0.1c0.1-0.1 0.2-0.3 0.2-0.5s-0.1-0.4-0.2-0.5l-9.1-9.1c-0.1-0.1-0.3-0.2-0.4-0.2h-0.2c-0.5-0.3-1.1-0.5-1.8-0.5-2 0-4.6 1.4-6.8 3.5-1.5 1.5-2.6 3.2-3.2 4.8-0.6 1.8-0.4 3.3 0.5 4.2l9.1 9.1c0.2 0.1 0.3 0.2 0.6 0.2s0.4-0.1 0.5-0.2c0.3-0.3 0.3-0.8 0-1.1-0.4-0.4-0.5-1-0.3-1.9l5 5c-0.4 0.7-0.7 1.4-1 2-0.9 2.4-0.7 4.3 0.4 5.4 0.6 0.6 1.6 1 2.6 1 2.5 0 5.8-1.7 8.8-4.5l2.7 2.3zm-19.7-12-0.2 0.7-7.2-7.2c-0.5-0.5-0.5-1.4-0.1-2.6 0.5-1.4 1.5-2.9 2.8-4.2 2.3-2.3 4.5-3.1 5.7-3.1 0.5 0 0.9 0.1 1.2 0.4 0.1 0.1 0.2 0.2 0.3 0.2h0.1l6.9 6.9-0.7 0.2c-1.8 0.4-3.8 1.7-5.5 3.4-1.5 1.5-2.6 3.2-3.2 4.8 0 0.1-0.1 0.3-0.1 0.5zm2-0.9c0.5-1.1 1.4-2.3 2.4-3.3 1.2-1.2 2.4-2 3.5-2.5l5.2 5.2c-1.1 0.7-2.2 1.6-3.2 2.7-1 1-1.9 2.1-2.7 3.2l-5.2-5.3zm6.5 13.4c-0.7 0-1.2-0.2-1.5-0.5-0.7-0.7-0.7-2.1 0-3.8 0.7-2 2.2-4.1 4.1-6 3.2-3.2 6.4-4.6 8.3-4.6 0.7 0 1.2 0.2 1.5 0.5 0.7 0.7 0.7 2.1 0 3.8-0.7 1.8-1.9 3.7-3.6 5.5l-1.8-1.8c-0.1-0.1-0.3-0.2-0.5-0.2s-0.4 0.1-0.5 0.2-0.2 0.3-0.2 0.5 0.1 0.4 0.2 0.5l1.8 1.8c-3.1 2.9-6.1 4.1-7.8 4.1z"/>
	<path d="m149.9 268.9h-0.8s-0.5-0.2-0.6-0.3c-0.2-0.2-0.2-0.4-0.2-0.7 0.1-0.5 0.5-0.9 1-0.9h0.6c1.8 0 3.6-0.8 5.1-2.2 1.3-1.3 2.1-2.9 2.2-4.5 0-0.5 0.5-0.9 1-0.9 0.6 0 0.9 0.5 0.9 1-0.2 2.1-1.2 4.1-2.8 5.7-1.8 1.8-4.1 2.8-6.4 2.8z"/>
	<path d="m149.9 268.8c2.3 0 4.6-1 6.3-2.7 1.6-1.6 2.5-3.6 2.7-5.6 0-0.4-0.3-0.8-0.7-0.8-0.5 0-0.8 0.3-0.8 0.7-0.1 1.7-1 3.3-2.3 4.7-1.5 1.5-3.4 2.3-5.2 2.3h-0.6c-0.5 0-0.8 0.3-0.8 0.7 0 0.2 0 0.4 0.2 0.6 0.1 0.2 0.3 0.3 0.5 0.3 0.2-0.3 0.4-0.2 0.7-0.2z"/>
	<path d="m151.3 273.6c-0.7 0-1.4-0.1-2.1-0.2-0.5-0.1-0.9-0.6-0.8-1.1s0.5-0.8 0.9-0.8h0.2c0.6 0.1 1.2 0.2 1.7 0.2 2.7 0 5.4-1.2 7.4-3.2 2.1-2.1 3.2-4.9 3.2-7.7 0-0.5 0.4-1 1-1 0.5 0 0.9 0.4 0.9 0.9 0.1 3.3-1.2 6.6-3.7 9.1-2.4 2.4-5.5 3.8-8.7 3.8z"/>
	<path d="m162.8 260c-0.5 0-0.8 0.4-0.8 0.8 0.1 2.8-1.1 5.7-3.2 7.8-2 2-4.8 3.2-7.5 3.2-0.6 0-1.2-0.1-1.8-0.2h-0.1c-0.4 0-0.7 0.3-0.8 0.6-0.1 0.4 0.2 0.8 0.6 0.9 0.7 0.1 1.4 0.2 2.1 0.2 3.1 0 6.3-1.3 8.6-3.7 2.4-2.4 3.8-5.7 3.7-9-0.1-0.3-0.4-0.6-0.8-0.6z"/>
	<path d="m144.9 240.8c-0.3 0-0.5-0.1-0.7-0.3l-8.2-8.2c-0.2-0.2-0.3-0.4-0.3-0.7s0.1-0.5 0.3-0.7l13.6-13.6c0.2-0.2 0.4-0.3 0.7-0.3s0.5 0.1 0.7 0.3l8.2 8.2c0.2 0.2 0.3 0.4 0.3 0.7s-0.1 0.5-0.3 0.7l-13.6 13.6c-0.2 0.2-0.4 0.3-0.7 0.3zm0-2.3 12.2-12.2-6.9-6.9-12.2 12.2 6.9 6.9z"/>
	<path d="m144.4 240.4c0.1 0.1 0.3 0.2 0.5 0.2s0.4-0.1 0.5-0.2l13.6-13.6c0.1-0.1 0.2-0.3 0.2-0.5s-0.1-0.4-0.2-0.5l-8.2-8.2c-0.1-0.1-0.3-0.2-0.5-0.2s-0.4 0.1-0.5 0.2l-13.6 13.4c-0.1 0.1-0.2 0.3-0.2 0.5s0.1 0.4 0.2 0.5l8.2 8.4zm5.9-21.3 7.1 7.1-12.5 12.5-7.1-7.1 12.5-12.5z"/>
	<path d="m116.4 269.3c-0.3 0-0.5-0.1-0.7-0.3l-8.2-8.2c-0.2-0.2-0.3-0.4-0.3-0.7s0.1-0.5 0.3-0.7l13.6-13.6c0.2-0.2 0.4-0.3 0.7-0.3s0.5 0.1 0.7 0.3l8.2 8.2c0.4 0.4 0.4 1 0 1.4l-13.6 13.6c-0.2 0.2-0.5 0.3-0.7 0.3zm0-2.3 12.2-12.2-6.9-6.9-12.2 12.2 6.9 6.9z"/>
	<path d="m122.3 246c-0.1-0.1-0.3-0.2-0.5-0.2s-0.4 0.1-0.5 0.2l-13.6 13.6c-0.1 0.1-0.2 0.3-0.2 0.5s0.1 0.4 0.2 0.5l8.2 8.2c0.1 0.1 0.3 0.2 0.5 0.2s0.4-0.1 0.5-0.2l13.6-13.6c0.3-0.3 0.3-0.8 0-1.1l-8.2-8.1zm-5.9 21.3-7.1-7.1 12.5-12.5 7.1 7.1-12.5 12.5z"/>
</g>
<path d="m224.1 162.6-1.4-1.4 1.4-1.4 1.4 1.4-1.4 1.4zm4.6-2.4h-1.4l-2.3-2.2v-1.4c0-0.5-0.4-0.9-0.9-0.9s-0.9 0.4-0.9 0.9v1.4l-2.2 2.2h-1.4c-0.5 0-0.9 0.4-0.9 0.9s0.4 0.9 0.9 0.9h1.4l2.2 2.2v1.4c0 0.5 0.4 0.9 0.9 0.9s0.9-0.4 0.9-0.9v-1.4l2.2-2.2h1.4c0.5 0 0.9-0.4 0.9-0.9s-0.3-0.9-0.8-0.9z" fill="#CDCCCC"/>
<path d="m220.5 165.7c0 1.2-1.8 1.2-1.8 0s1.8-1.2 1.8 0" fill="#CDCCCC"/>
<path d="m798.2 428.8c0.2-0.2 0.5-0.5 0.7-0.8 0.2 0.3 0.4 0.6 0.7 0.8 0.3 0.3 0.6 0.5 0.9 0.7-0.3 0.2-0.6 0.5-0.9 0.7-0.2 0.2-0.4 0.5-0.6 0.7-0.2-0.3-0.4-0.5-0.6-0.7-0.3-0.3-0.6-0.5-1-0.8 0.2-0.1 0.5-0.4 0.8-0.6zm-3.2 1.6s1.2 0.5 1.9 1.2c0.5 0.5 0.9 1.4 1 1.8s0.5 0.6 0.9 0.6 0.7-0.3 0.9-0.6c0 0 0.4-1.1 1.1-1.7 0.6-0.6 1.6-1 1.9-1.2 0.4-0.1 0.6-0.5 0.6-0.9s-0.3-0.7-0.6-0.8c0 0-1.1-0.4-1.8-1.2-0.5-0.5-1-1.5-1.1-1.8-0.1-0.4-0.5-0.6-0.9-0.6s-0.7 0.2-0.9 0.6c-0.1 0.3-0.6 1.3-1.1 1.8-0.7 0.7-1.8 1.2-1.8 1.2-0.4 0.1-0.6 0.5-0.6 0.9-0.1 0.2 0.2 0.5 0.5 0.7z" fill="#CDCCCC"/>
<path d="m814 437.7c-0.4 0.4-0.7 0.9-1 1.3-0.3-0.4-0.6-0.9-1-1.3-0.5-0.5-1-0.9-1.6-1.2 0.5-0.3 1-0.7 1.4-1.1s0.8-0.9 1.1-1.4c0.3 0.5 0.6 1 1.1 1.4 0.5 0.5 1 0.9 1.5 1.1-0.6 0.3-1.1 0.7-1.5 1.2zm3.8-2.1s-1.4-0.5-2.5-1.6c-0.9-0.9-1.5-2.4-1.5-2.4-0.1-0.4-0.5-0.6-0.8-0.6-0.4 0-0.7 0.2-0.9 0.6-0.2 0.5-0.8 1.8-1.5 2.5-1 1-2.5 1.6-2.5 1.6-0.4 0.1-0.6 0.5-0.6 0.9s0.2 0.7 0.6 0.9c0 0 1.7 0.7 2.6 1.6 0.7 0.7 1.2 1.9 1.4 2.4 0.1 0.4 0.5 0.6 0.9 0.6s0.7-0.3 0.9-0.6c0 0 0.5-1.4 1.4-2.4 0.9-0.9 2.6-1.6 2.6-1.6 0.4-0.1 0.6-0.5 0.6-0.9-0.1-0.5-0.3-0.9-0.7-1z" fill="#CDCCCC"/>
<path d="m804.8 449.5-0.4 0.4c-0.1-0.1-0.2-0.3-0.3-0.4-0.2-0.2-0.4-0.3-0.6-0.5 0.2-0.1 0.3-0.3 0.5-0.4 0.1-0.1 0.3-0.3 0.4-0.5 0.1 0.2 0.3 0.3 0.4 0.5l0.5 0.5c-0.2 0.1-0.4 0.2-0.5 0.4zm2.7-1.3s-0.8-0.3-1.4-0.9c-0.4-0.4-0.7-1.1-0.8-1.4-0.1-0.4-0.5-0.6-0.9-0.6s-0.7 0.2-0.9 0.6c-0.1 0.3-0.5 1-0.9 1.4-0.6 0.6-1.4 0.9-1.4 0.9-0.4 0.1-0.6 0.5-0.6 0.9s0.2 0.7 0.6 0.9c0.3 0.1 1 0.5 1.5 0.9 0.4 0.4 0.7 1.1 0.8 1.3 0.1 0.4 0.5 0.6 0.9 0.6s0.7-0.3 0.9-0.6c0.1-0.2 0.4-0.9 0.8-1.3s1.2-0.8 1.5-0.9c0.4-0.1 0.6-0.5 0.6-0.9-0.1-0.5-0.3-0.8-0.7-0.9z" fill="#CDCCCC"/>
<path d="m1042.3 457.9c-0.3 0.2-0.7 0.5-1 0.8-0.2 0.2-0.4 0.5-0.6 0.7-0.2-0.3-0.4-0.5-0.6-0.7-0.3-0.3-0.6-0.5-0.9-0.7 0.3-0.2 0.6-0.4 0.9-0.7 0.3-0.2 0.5-0.5 0.7-0.8 0.2 0.3 0.4 0.6 0.7 0.8 0.2 0.1 0.5 0.4 0.8 0.6zm2.9 0c0-0.4-0.2-0.7-0.6-0.9 0 0-1.1-0.4-1.8-1.2-0.5-0.5-1-1.5-1.1-1.8s-0.5-0.6-0.9-0.6-0.7 0.2-0.9 0.6c-0.1 0.3-0.5 1.3-1.1 1.8-0.8 0.8-1.8 1.2-1.8 1.2-0.4 0.1-0.6 0.5-0.6 0.8 0 0.4 0.2 0.7 0.6 0.9 0.3 0.1 1.4 0.6 1.9 1.2 0.7 0.7 1.1 1.7 1.1 1.7 0.1 0.4 0.5 0.6 0.9 0.6s0.7-0.2 0.9-0.6c0.1-0.3 0.5-1.3 1-1.8 0.7-0.7 1.9-1.2 1.9-1.2 0.3 0 0.5-0.3 0.5-0.7z" fill="#CDCCCC"/>
<path d="m1024.2 464.9c0.5-0.3 1-0.7 1.5-1.1 0.4-0.4 0.8-0.9 1.1-1.4 0.3 0.5 0.7 1 1.1 1.4 0.5 0.4 1 0.8 1.4 1.1-0.5 0.3-1.1 0.7-1.6 1.2-0.4 0.4-0.7 0.8-1 1.3-0.3-0.4-0.6-0.9-1-1.3-0.5-0.5-1-0.9-1.5-1.2zm-3 0c0 0.4 0.2 0.7 0.6 0.9 0 0 1.7 0.7 2.6 1.6s1.4 2.4 1.4 2.4c0.1 0.4 0.5 0.6 0.9 0.6s0.7-0.2 0.9-0.6 0.7-1.7 1.4-2.4c1-1 2.6-1.6 2.6-1.6 0.4-0.1 0.6-0.5 0.6-0.9s-0.2-0.7-0.6-0.9c0 0-1.5-0.6-2.5-1.6-0.7-0.7-1.3-2-1.5-2.5-0.1-0.4-0.5-0.5-0.9-0.6-0.4 0-0.7 0.2-0.8 0.6 0 0-0.6 1.5-1.5 2.4-1.1 1.1-2.5 1.6-2.5 1.6-0.4 0.2-0.7 0.6-0.7 1z" fill="#CDCCCC"/>
<path d="m1034.3 477.4c0.2-0.1 0.4-0.3 0.5-0.5 0.1-0.1 0.3-0.3 0.4-0.5 0.1 0.2 0.3 0.3 0.4 0.5 0.2 0.2 0.3 0.3 0.5 0.4-0.2 0.1-0.4 0.3-0.6 0.5-0.1 0.1-0.2 0.3-0.3 0.4-0.1-0.1-0.2-0.3-0.4-0.4-0.1-0.1-0.3-0.2-0.5-0.4zm-2.8 0c0 0.4 0.2 0.7 0.6 0.9 0.3 0.1 1.1 0.5 1.5 0.9s0.7 1.1 0.8 1.3c0.1 0.4 0.5 0.6 0.9 0.6s0.7-0.2 0.9-0.6c0.1-0.2 0.4-1 0.8-1.3 0.5-0.5 1.2-0.8 1.5-0.9 0.4-0.1 0.6-0.5 0.6-0.9s-0.2-0.7-0.6-0.9c0 0-0.9-0.3-1.4-0.9-0.4-0.4-0.8-1.2-0.9-1.4-0.1-0.3-0.5-0.5-0.9-0.6-0.4 0-0.7 0.3-0.9 0.6-0.1 0.2-0.4 1-0.8 1.4-0.6 0.6-1.4 0.9-1.4 0.9-0.4 0.2-0.7 0.5-0.7 0.9z" fill="#CDCCCC"/>
<path d="m1048.3 242.7c0.3-0.3 0.5-0.6 0.7-0.9 0.2 0.3 0.5 0.6 0.8 0.9s0.7 0.6 1 0.8c-0.4 0.2-0.7 0.5-1 0.8s-0.5 0.6-0.7 0.8c-0.2-0.3-0.4-0.6-0.7-0.8-0.3-0.3-0.7-0.6-1.1-0.9 0.3-0.1 0.7-0.4 1-0.7zm-3.6 1.8s1.4 0.6 2.2 1.4c0.6 0.6 1 1.6 1.2 2s0.5 0.7 1 0.7c0.4 0 0.8-0.3 1-0.7 0 0 0.4-1.2 1.2-2 0.6-0.6 1.8-1.2 2.2-1.4s0.7-0.6 0.6-1c0-0.4-0.3-0.8-0.7-1 0 0-1.2-0.4-2.1-1.3-0.6-0.6-1.1-1.7-1.2-2-0.1-0.4-0.5-0.7-1-0.7-0.4 0-0.8 0.2-1 0.6s-0.7 1.5-1.3 2.1c-0.8 0.8-2.1 1.3-2.1 1.3-0.4 0.2-0.7 0.5-0.7 1s0.3 0.9 0.7 1z" fill="#CDCCCC"/>
<path d="m1034.8 266c-0.5 0.5-0.8 1-1.1 1.5-0.3-0.5-0.7-1-1.1-1.4-0.5-0.5-1.2-1-1.8-1.4 0.5-0.3 1.1-0.8 1.6-1.3 0.4-0.5 0.9-1 1.2-1.6 0.3 0.5 0.7 1.1 1.2 1.6s1.1 1 1.7 1.3c-0.6 0.3-1.2 0.8-1.7 1.3zm4.4-2.4s-1.6-0.6-2.8-1.8c-1-1-1.7-2.7-1.7-2.8-0.1-0.4-0.5-0.7-1-0.7-0.4 0-0.8 0.2-1 0.6-0.2 0.5-0.9 2-1.7 2.8-1.1 1.1-2.8 1.8-2.8 1.8-0.4 0.2-0.7 0.5-0.7 1 0 0.4 0.3 0.8 0.7 1 0 0 1.9 0.7 3 1.8 0.8 0.8 1.4 2.2 1.6 2.7 0.2 0.4 0.5 0.7 1 0.7 0.4 0 0.8-0.3 1-0.7 0 0 0.6-1.6 1.6-2.7 1-1 2.9-1.8 2.9-1.8 0.4-0.2 0.7-0.6 0.7-1-0.1-0.3-0.4-0.7-0.8-0.9z" fill="#CDCCCC"/>
<path d="m727 328-1.4-1.4 1.4-1.4 1.4 1.4-1.4 1.4zm4.5-2.3h-1.4l-2.2-2.2v-1.5c0-0.5-0.4-0.9-0.9-0.9s-0.9 0.4-0.9 0.9v1.4l-2.2 2.2h-1.4c-0.5 0-0.9 0.4-0.9 0.9s0.4 0.9 0.9 0.9h1.4l2.2 2.2v1.4c0 0.5 0.4 0.9 0.9 0.9s0.9-0.4 0.9-0.9v-1.4l2.2-2.2h1.4c0.5 0 0.9-0.4 0.9-0.9 0-0.4-0.4-0.8-0.9-0.8z" fill="#CDCCCC"/>
<path d="m723.3 331.1c0 1.2-1.8 1.2-1.8 0s1.8-1.2 1.8 0" fill="#CDCCCC"/>
<path d="m783 278.6c-0.6-0.3-0.9-1.1-0.6-1.7s1.1-0.8 1.7-0.5c0.7 0.3 0.9 1.1 0.6 1.7-0.2 0.6-1 0.8-1.7 0.5zm2-3.9c-1.6-0.8-3.5-0.2-4.2 1.3-0.8 1.5-0.2 3.4 1.4 4.2s3.5 0.2 4.2-1.3c0.8-1.5 0.2-3.4-1.4-4.2z" fill="#CDCCCC"/>
<path d="m839.6 280.7c0.3 0.1 0.4 0.4 0.3 0.7-0.1 0.2-0.5 0.3-0.7 0.2-0.3-0.1-0.4-0.4-0.3-0.7s0.5-0.3 0.7-0.2zm-1.3 2.6c1.2 0.6 2.6 0.2 3.2-1s0.1-2.6-1.1-3.2-2.6-0.2-3.2 1-0.1 2.6 1.1 3.2z" fill="#CDCCCC"/>
<path d="m821.1 253.9c1.2 0.6 1.7 2 1.1 3.2s-2 1.6-3.2 1-1.7-2-1.1-3.2c0.7-1.2 2.1-1.6 3.2-1zm-3 5.8c2.1 1.1 4.7 0.3 5.7-1.8 1.1-2.1 0.3-4.6-1.9-5.7-2.1-1.1-4.7-0.3-5.7 1.8s-0.1 4.6 1.9 5.7z" fill="#CDCCCC"/>
<path d="m780.7 231.1 1.2 0.6-0.6 1.2c-0.3 0.5-0.1 1 0.4 1.3s1 0.1 1.3-0.4l0.6-1.2 1.2 0.6c0.5 0.3 1 0.1 1.3-0.4s0.1-1-0.4-1.3l-1.2-0.6 0.6-1.2c0.3-0.5 0.1-1-0.4-1.3s-1-0.1-1.3 0.4l-0.6 1.2-1.2-0.6c-0.5-0.3-1-0.1-1.3 0.4-0.3 0.6-0.1 1.1 0.4 1.3z" fill="#CDCCCC"/>
<path d="m823.1 303.5-1.2-0.6 0.6-1.2c0.3-0.5 0.1-1-0.4-1.3s-1-0.1-1.3 0.4l-0.6 1.2-1.2-0.6c-0.5-0.3-1-0.1-1.3 0.4s-0.1 1 0.4 1.3l1.2 0.6-0.6 1.2c-0.3 0.5-0.1 1 0.4 1.3s1 0.1 1.3-0.4l0.6-1.2 1.2 0.6c0.5 0.3 1 0.1 1.3-0.4s0.1-1.1-0.4-1.3z" fill="#CDCCCC"/>
<path d="m835.9 258.7c0.1 0.2 0.3 0.5 0.4 0.5 0.2 0.1 0.5 0.1 0.7 0l1.3-0.4 0.5 1.3c0.1 0.2 0.2 0.4 0.4 0.5 0.3 0.1 0.5 0.1 0.7 0 0.5-0.2 0.8-0.7 0.6-1.2l-0.4-1.3 1.3-0.4c0.5-0.2 0.8-0.7 0.6-1.2s-0.7-0.8-1.2-0.6l-1.3 0.4-0.5-1.3c-0.2-0.5-0.7-0.8-1.2-0.6s-0.8 0.7-0.6 1.2l0.4 1.3-1.3 0.4c-0.2 0.3-0.5 0.9-0.4 1.4z" fill="#CDCCCC"/>
<path d="m765.7 272.4c-0.2-0.5-0.7-0.8-1.2-0.6l-1.3 0.4-0.5-1.3c-0.2-0.5-0.7-0.8-1.2-0.6s-0.8 0.7-0.6 1.2l0.4 1.3-1.3 0.4c-0.5 0.2-0.8 0.7-0.6 1.2 0.1 0.2 0.3 0.5 0.4 0.5 0.3 0.1 0.5 0.1 0.7 0l1.3-0.4 0.5 1.3c0.1 0.2 0.2 0.4 0.4 0.5 0.3 0.1 0.5 0.1 0.7 0 0.5-0.2 0.8-0.7 0.6-1.2l-0.4-1.3 1.3-0.4c0.7 0 1-0.5 0.8-1z" fill="#CDCCCC"/>
<path d="m775.3 284.8c-0.6 1.1-2.2 0.2-1.7-0.9 0.7-1.1 2.3-0.2 1.7 0.9" fill="#CDCCCC"/>
<path d="m828.8 279.3c-0.6 1.1-2.2 0.2-1.7-0.9 0.6-1 2.3-0.2 1.7 0.9" fill="#CDCCCC"/>
<path d="m805 240.1c-0.6 1.1-2.2 0.2-1.7-0.9 0.6-1 2.3-0.2 1.7 0.9" fill="#CDCCCC"/>
<path d="m777.8 272.1c-9.2-8.4-13.3-17.1-10.4-22.6 4.5-8.7 23.9-7.7 43.2 2.3 0.5 0.3 1 0.1 1.3-0.4s0.1-1-0.4-1.3c-20.6-10.6-40.7-11.3-45.7-1.5-3.3 6.4 0.7 15.8 10.8 24.8 0.1 0 0.2 0.1 0.3 0.1 0.3 0.2 0.8 0.1 1.1-0.1 0.3-0.4 0.3-0.9-0.2-1.3z" fill="#CDCCCC"/>
<path d="m838.7 285.3c-0.5-0.3-1-0.1-1.3 0.4-4.5 8.7-23.9 7.7-43.2-2.3-1.2-0.6-2.3-1.2-3.3-1.8-0.4-0.2-1-0.1-1.3 0.4s-0.1 1 0.4 1.3c1.1 0.7 2.3 1.3 3.4 1.9 20.6 10.6 40.7 11.3 45.7 1.5 0.3-0.7 0.1-1.2-0.4-1.4z" fill="#CDCCCC"/>
<path d="m827.1 263c5.1 4.6 8.7 9.3 10.3 13.7 0.1 0.2 0.2 0.4 0.4 0.5 0.3 0.1 0.5 0.1 0.7 0 0.5-0.2 0.7-0.7 0.5-1.2-1.8-4.6-5.5-9.6-10.8-14.4-0.4-0.3-1-0.3-1.3 0.1s-0.3 1 0.2 1.3z" fill="#CDCCCC"/>
<path d="m788 249.6c-6.1 0-10.3 1.9-11.8 5.2-1.5 3.4-0.1 7.8 3.9 12.4 4.2 4.8 10.2 9.2 17 12.7 9.1 4.7 19.3 7.7 27.8 7.7 0.5 0 1-0.4 0.9-0.9 0-0.5-0.4-1-0.9-0.9-14.4 0-34-8.9-43.4-19.7-3.4-4-4.7-7.7-3.5-10.4 1.2-2.6 4.9-4.2 10.1-4.2 9.1 0 21.5 5.6 27.6 12.5 2.1 2.4 2.9 4.7 2.2 6.3s-2.9 2.5-6.2 2.5c-5.8 0-13.6-3.5-17.4-7.9-0.3-0.4-0.9-0.4-1.3-0.1s-0.5 0.9-0.1 1.3c4.1 4.7 12.5 8.6 18.7 8.5 4 0 6.8-1.3 7.8-3.6 1.1-2.3 0.2-5.2-2.5-8.3-6.3-7.3-19.3-13.2-28.9-13.1z" fill="#CDCCCC"/>
<path d="m800.6 264.7c-0.3 0.5-0.1 1 0.4 1.3 2 1 4 1.6 5.5 1.7 0.5 0 0.9-0.4 1-0.9 0-0.5-0.4-0.9-0.9-1-1.2 0-2.9-0.6-4.7-1.5-0.5-0.2-1.1 0-1.3 0.4z" fill="#CDCCCC"/>
<path d="m806 261.4c-0.6-0.4-1.2-0.8-2-1.2-2.2-1.2-4.5-1.8-6.1-1.7-0.5 0-0.9 0.5-0.8 1 0 0.3 0.2 0.6 0.4 0.8 0.2 0.1 0.3 0.2 0.5 0.1 1.2-0.1 3.2 0.5 5.1 1.5 0.7 0.3 1.2 0.6 1.8 1 0.4 0.3 1 0.2 1.3-0.3 0.4-0.4 0.3-1-0.2-1.2z" fill="#CDCCCC"/>

	<path d="m525.7 228.5c0-5.4 7.7-5.9 7.7-10.3 0-2.1-1.7-3.9-5-3.9-3.2 0-5.2 1.4-6.7 3.5l-2.1-2.3c2-2.6 5.2-4.3 9.2-4.3 5.2 0 8.3 2.9 8.3 6.6 0 6.4-8.2 7-8.2 11.1 0 0.7 0.4 1.5 1.1 2.1l-2.6 1.1c-1.2-1.2-1.7-2.3-1.7-3.6zm0.2 9.4c0-1.3 1.1-2.3 2.3-2.3 1.3 0 2.3 1.1 2.3 2.3 0 1.3-1.1 2.3-2.3 2.3-1.3 0-2.3-1.1-2.3-2.3z" fill="#010101"/>


	<path d="m558.1 196.3c-1.8-2.4 1.5-5.2 0-7.2-0.7-1-2.1-1.2-3.6-0.1-1.4 1.1-1.9 2.4-1.9 3.8l-1.7-0.3c0-1.9 0.9-3.7 2.7-5 2.3-1.7 4.7-1.5 5.9 0.2 2.2 2.9-1.4 5.9 0 7.8 0.2 0.3 0.7 0.5 1.2 0.5l-0.8 1.4c-0.7-0.2-1.4-0.6-1.8-1.1zm3.3 4.1c-0.4-0.6-0.3-1.4 0.3-1.8s1.4-0.3 1.8 0.3 0.3 1.4-0.3 1.8-1.4 0.3-1.8-0.3z" fill="#010101"/>


	<path d="m483.8 200.8c2.4-3 6.9 0.1 8.9-2.4 0.9-1.2 0.8-3-1.1-4.4-1.8-1.4-3.5-1.5-5.3-1l-0.2-2.2c2.3-0.6 4.8-0.1 7.1 1.7 2.9 2.3 3.4 5.3 1.7 7.4-2.9 3.6-7.7 0.2-9.6 2.6-0.3 0.4-0.4 1-0.3 1.7l-1.9-0.5c-0.1-1.3 0.2-2.2 0.7-2.9zm-4 5.3c0.6-0.7 1.6-0.8 2.4-0.3 0.7 0.6 0.8 1.6 0.3 2.4-0.6 0.7-1.6 0.8-2.4 0.3-0.8-0.6-0.9-1.7-0.3-2.4z" fill="#010101"/>

<g fill="#010101">
	<path d="m506.2 213.1h-0.2c-0.4 0-0.8 0.3-0.9 0.7-0.1 0.5 0.2 1 0.7 1.1h0.2c0.4 0 0.8-0.3 0.9-0.7 0.1-0.5-0.2-1-0.7-1.1z"/>
	<path d="m509.8 206.9c-0.4-0.5-1-0.9-1.8-1.1-0.3-0.1-0.6-0.1-1-0.1-0.8 0-1.6 0.3-2.3 0.8l-0.2 0.1 0.7 1.2 0.2-0.2c0.5-0.4 0.9-0.6 1.5-0.6 0.2 0 0.4 0 0.6 0.1 0.4 0.1 0.7 0.3 0.9 0.5s0.2 0.5 0.1 0.7c-0.1 0.5-0.6 0.7-1.2 1-0.7 0.3-1.5 0.6-1.7 1.6-0.1 0.5 0 0.9 0.3 1.3l0.1 0.1 1.4-0.2-0.3-0.3c-0.1-0.2-0.2-0.4-0.1-0.5 0.1-0.4 0.6-0.6 1.2-0.9 0.8-0.3 1.8-0.7 2-1.9 0.1-0.4 0-1.1-0.4-1.6z"/>
</g>
<g fill="#010101">
	<path d="m545.2 181.1 1.4-0.7-0.4-0.2c-0.2-0.1-0.3-0.3-0.3-0.5 0-0.5 0.4-0.9 1-1.3 0.7-0.6 1.6-1.3 1.5-2.7-0.1-1.1-0.8-1.9-2-2.2-0.4-0.1-0.8-0.1-1.2-0.1-1.4 0.1-2.5 0.7-3.2 1.8l-0.1 0.2 1.2 1.1 0.2-0.3c0.5-0.8 1.1-1.2 2-1.2h0.7c0.5 0.1 0.8 0.5 0.8 0.9 0 0.6-0.4 1-1 1.4-0.7 0.5-1.4 1.2-1.3 2.2 0 0.5 0.3 1 0.7 1.3v0.3z"/>
	<path d="m545.9 181.7h-0.3c-0.3 0-0.5 0.1-0.7 0.4s-0.3 0.5-0.3 0.8c0 0.5 0.4 0.8 0.8 0.9h0.3c0.3 0 0.5-0.1 0.7-0.4 0.2-0.2 0.3-0.5 0.3-0.8 0-0.4-0.3-0.8-0.8-0.9z"/>
</g>

	<path d="m517.7 183.4c-0.7-3 3.5-4.2 2.9-6.7-0.3-1.2-1.4-2-3.2-1.5-1.7 0.4-2.7 1.4-3.3 2.8l-1.5-1c0.8-1.7 2.3-3 4.5-3.5 2.8-0.7 4.9 0.6 5.4 2.6 0.8 3.5-3.6 4.9-3.1 7.1 0.1 0.4 0.4 0.8 0.9 1l-1.3 0.9c-0.7-0.4-1.1-1-1.3-1.7zm1.3 5.1c-0.2-0.7 0.3-1.4 1-1.6s1.4 0.3 1.6 1-0.3 1.4-1 1.6-1.4-0.3-1.6-1z" fill="#010101"/>

<path d="m490.4 234.2c-2.9 0-5.6-1.2-7.4-3.4-3.5-4.1-3-10.2 1.1-13.7 1.8-1.5 4-2.3 6.3-2.3 2.9 0 5.6 1.2 7.4 3.4 1.7 2 2.5 4.5 2.3 7.1s-1.4 4.9-3.4 6.6c-1.7 1.4-3.9 2.3-6.3 2.3zm0-17.1c-1.7 0-3.4 0.6-4.7 1.8-1.5 1.3-2.4 3-2.5 5-0.2 1.9 0.5 3.8 1.7 5.3 1.4 1.6 3.4 2.5 5.6 2.5 1.8 0 3.4-0.6 4.7-1.7 1.5-1.3 2.4-3 2.5-5 0.2-1.9-0.5-3.8-1.7-5.3-1.4-1.6-3.4-2.6-5.6-2.6z" fill="#010101"/>
<path d="m508.3 244.3c-1 0-1.9-0.4-2.6-1.2-0.6-0.7-0.9-1.6-0.8-2.5s0.5-1.7 1.2-2.3c0.6-0.5 1.3-0.8 2.2-0.8 1 0 2 0.4 2.6 1.1 1.2 1.4 1 3.6-0.4 4.8-0.7 0.6-1.4 0.9-2.2 0.9z" fill="#010101"/>
<path d="m598.9 229.6c0-36.5-29.6-66.1-66.1-66.1s-66.1 29.6-66.1 66.1v0.5s0 0.3 0 0.5c0 36.5 29.6 66.1 66.1 66.1s66.1-29.6 66.1-66.1v-0.5-0.5z" fill="#33CAC0"/>

	<path d="m525.7 229.5c0-5.4 7.7-5.9 7.7-10.3 0-2.1-1.7-3.9-5-3.9-3.2 0-5.2 1.4-6.7 3.5l-2.1-2.3c2-2.6 5.2-4.3 9.2-4.3 5.2 0 8.3 2.9 8.3 6.6 0 6.4-8.2 7-8.2 11.1 0 0.7 0.4 1.5 1.1 2.1l-2.6 1.1c-1.2-1.2-1.7-2.3-1.7-3.6zm0.2 9.4c0-1.3 1.1-2.3 2.3-2.3 1.3 0 2.3 1.1 2.3 2.3 0 1.3-1.1 2.3-2.3 2.3-1.3 0-2.3-1.1-2.3-2.3z" fill="#010101"/>


	<path d="m558.1 197.3c-1.8-2.4 1.5-5.2 0-7.2-0.7-1-2.1-1.2-3.6-0.1-1.4 1.1-1.9 2.4-1.9 3.8l-1.7-0.3c0-1.9 0.9-3.7 2.7-5 2.3-1.7 4.7-1.5 5.9 0.2 2.2 2.9-1.4 5.9 0 7.8 0.2 0.3 0.7 0.5 1.2 0.5l-0.8 1.4c-0.7-0.2-1.4-0.6-1.8-1.1zm3.3 4.1c-0.4-0.6-0.3-1.4 0.3-1.8s1.4-0.3 1.8 0.3 0.3 1.4-0.3 1.8-1.4 0.3-1.8-0.3z" fill="#010101"/>


	<path d="m483.8 201.8c2.4-3 6.9 0.1 8.9-2.4 0.9-1.2 0.8-3-1.1-4.4-1.8-1.4-3.5-1.5-5.3-1l-0.2-2.2c2.3-0.6 4.8-0.1 7.1 1.7 2.9 2.3 3.4 5.3 1.7 7.4-2.9 3.6-7.7 0.2-9.6 2.6-0.3 0.4-0.4 1-0.3 1.7l-1.9-0.5c-0.1-1.3 0.2-2.2 0.7-2.9zm-4 5.3c0.6-0.7 1.6-0.8 2.4-0.3 0.7 0.6 0.8 1.6 0.3 2.4-0.6 0.7-1.6 0.8-2.4 0.3-0.8-0.6-0.9-1.7-0.3-2.4z" fill="#010101"/>

<g fill="#010101">
	<path d="m506.2 214.1h-0.2c-0.4 0-0.8 0.3-0.9 0.7-0.1 0.5 0.2 1 0.7 1.1h0.2c0.4 0 0.8-0.3 0.9-0.7 0.1-0.5-0.2-1-0.7-1.1z"/>
	<path d="m509.8 207.9c-0.4-0.5-1-0.9-1.8-1.1-0.3-0.1-0.6-0.1-1-0.1-0.8 0-1.6 0.3-2.3 0.8l-0.2 0.1 0.7 1.2 0.2-0.2c0.5-0.4 0.9-0.6 1.5-0.6 0.2 0 0.4 0 0.6 0.1 0.4 0.1 0.7 0.3 0.9 0.5s0.2 0.5 0.1 0.7c-0.1 0.5-0.6 0.7-1.2 1-0.7 0.3-1.5 0.6-1.7 1.6-0.1 0.5 0 0.9 0.3 1.3l0.1 0.1 1.4-0.2-0.3-0.3c-0.1-0.2-0.2-0.4-0.1-0.5 0.1-0.4 0.6-0.6 1.2-0.9 0.8-0.3 1.8-0.7 2-1.9 0.1-0.4 0-1.1-0.4-1.6z"/>
</g>
<g fill="#010101">
	<path d="m545.2 182.1 1.4-0.7-0.4-0.2c-0.2-0.1-0.3-0.3-0.3-0.5 0-0.5 0.4-0.9 1-1.3 0.7-0.6 1.6-1.3 1.5-2.7-0.1-1.1-0.8-1.9-2-2.2-0.4-0.1-0.8-0.1-1.2-0.1-1.4 0.1-2.5 0.7-3.2 1.8l-0.1 0.2 1.2 1.1 0.2-0.3c0.5-0.8 1.1-1.2 2-1.2h0.7c0.5 0.1 0.8 0.5 0.8 0.9 0 0.6-0.4 1-1 1.4-0.7 0.5-1.4 1.2-1.3 2.2 0 0.5 0.3 1 0.7 1.3v0.3z"/>
	<path d="m545.9 182.7h-0.3c-0.3 0-0.5 0.1-0.7 0.4s-0.3 0.5-0.3 0.8c0 0.5 0.4 0.8 0.8 0.9h0.3c0.3 0 0.5-0.1 0.7-0.4 0.2-0.2 0.3-0.5 0.3-0.8 0-0.4-0.3-0.8-0.8-0.9z"/>
</g>

	<path d="m517.7 184.4c-0.7-3 3.5-4.2 2.9-6.7-0.3-1.2-1.4-2-3.2-1.5-1.7 0.4-2.7 1.4-3.3 2.8l-1.5-1c0.8-1.7 2.3-3 4.5-3.5 2.8-0.7 4.9 0.6 5.4 2.6 0.8 3.5-3.6 4.9-3.1 7.1 0.1 0.4 0.4 0.8 0.9 1l-1.3 0.9c-0.7-0.4-1.1-1-1.3-1.7zm1.3 5.1c-0.2-0.7 0.3-1.4 1-1.6s1.4 0.3 1.6 1-0.3 1.4-1 1.6-1.4-0.3-1.6-1z" fill="#010101"/>

<path d="m490.4 235.2c-2.9 0-5.6-1.2-7.4-3.4-3.5-4.1-3-10.2 1.1-13.7 1.8-1.5 4-2.3 6.3-2.3 2.9 0 5.6 1.2 7.4 3.4 1.7 2 2.5 4.5 2.3 7.1s-1.4 4.9-3.4 6.6c-1.7 1.4-3.9 2.3-6.3 2.3zm0-17.1c-1.7 0-3.4 0.6-4.7 1.8-1.5 1.3-2.4 3-2.5 5-0.2 1.9 0.5 3.8 1.7 5.3 1.4 1.6 3.4 2.5 5.6 2.5 1.8 0 3.4-0.6 4.7-1.7 1.5-1.3 2.4-3 2.5-5 0.2-1.9-0.5-3.8-1.7-5.3-1.4-1.6-3.4-2.6-5.6-2.6z" fill="#010101"/>
<path d="m508.3 245.3c-1 0-1.9-0.4-2.6-1.2-0.6-0.7-0.9-1.6-0.8-2.5s0.5-1.7 1.2-2.3c0.6-0.5 1.3-0.8 2.2-0.8 1 0 2 0.4 2.6 1.1 1.2 1.4 1 3.6-0.4 4.8-0.7 0.6-1.4 0.9-2.2 0.9z" fill="#010101"/>
<g fill="#010101">
	<path d="m451.7 249.8c-0.6-0.8-1.7-1.4-2.8-1.4-0.7 0-1.4 0.2-1.9 0.6-0.7 0.5-1.2 1.3-1.3 2.2-0.1 0.3 0 0.7 0 1-0.1 0.9 0.1 1.8 0.6 2.5 0.6 0.9 1.7 1.4 2.7 1.4 0.7 0 1.4-0.2 2-0.6 0.7-0.5 1.2-1.3 1.3-2.2 0.1-0.3 0-0.7 0-1 0.2-0.9 0-1.8-0.6-2.5z"/>
	<path d="m610.7 161.2c-1.1-1.9-3.4-3.1-5.8-3.1-1.2 0-2.3 0.3-3.2 0.9-1.5 0.9-2.6 2.3-3 4-0.2 0.7-0.2 1.4-0.2 2.1-0.1 1.3 0.2 2.7 0.9 3.9 1.2 2 3.3 3.2 5.6 3.2 1.2 0 2.4-0.3 3.4-0.9 1.5-0.9 2.6-2.3 3-4 0.2-0.7 0.2-1.4 0.2-2.1 0.1-1.5-0.2-2.8-0.9-4zm-1.6 4.4c-0.3 1.1-0.9 2-1.9 2.6-0.6 0.4-1.3 0.6-2.1 0.6-1.5 0-2.9-0.8-3.6-2-0.3-0.5-0.5-1-0.5-1.6 0-0.2 0-0.4 0.1-0.5 0.3-1.1 0.9-2 1.9-2.6 0.7-0.4 1.4-0.6 2.1-0.6 1.5 0 2.8 0.8 3.6 2 0.3 0.5 0.5 1 0.6 1.6-0.1 0.1-0.1 0.3-0.2 0.5z"/>
	<path d="m606.9 259.2c-0.9-2-3-3.3-5.3-3.3-0.8 0-1.5 0.2-2.2 0.5-1.4 0.6-2.4 1.8-3 3.2-0.3 0.8-0.4 1.7-0.3 2.5-0.1 1 0.1 1.9 0.5 2.8 0.9 2 3 3.3 5.2 3.3 0.8 0 1.6-0.2 2.3-0.5 1.4-0.6 2.4-1.8 3-3.2 0.3-0.8 0.4-1.7 0.3-2.5 0-0.9-0.1-1.9-0.5-2.8zm-2.1 3.4c-0.3 0.8-0.9 1.5-1.7 1.8-0.4 0.2-0.9 0.3-1.3 0.3-1.3 0-2.5-0.8-3-1.9-0.1-0.3-0.2-0.6-0.2-0.9 0-0.2 0.1-0.4 0.2-0.6 0.3-0.8 0.9-1.4 1.7-1.8 0.4-0.2 0.9-0.3 1.4-0.3 1.3 0 2.4 0.7 3 1.9 0.1 0.3 0.2 0.6 0.2 0.9-0.2 0.3-0.3 0.5-0.3 0.6z"/>
	<path d="m594.9 188.3c0.6 1 1.7 1.6 2.9 1.6 0.6 0 1.2-0.2 1.7-0.5 1.2-0.7 1.8-2.1 1.6-3.4 0.1-0.7 0-1.5-0.4-2.2-0.6-1-1.8-1.6-3-1.6-0.6 0-1.2 0.2-1.6 0.4-0.8 0.5-1.3 1.2-1.5 2.1-0.1 0.5-0.1 0.9-0.1 1.4-0.2 0.8 0 1.5 0.4 2.2z"/>
	<path d="m602.9 224.5v-0.7-0.3c0.1-7.1-4.4-13.9-13.1-19.8l-0.2-0.1-0.1-0.2v-0.3c-0.4-1.3-0.8-2.6-1.4-4.1-0.3-0.9-0.7-1.7-1-2.5-0.4-1-0.9-2-1.5-3.3l-0.1-0.3c-0.1-0.2-0.1-0.3-0.2-0.4 0.7-3.2 1-6.2 0.9-8.9 0.1-6.3-1.7-11.5-5.2-15.1-3.6-3.7-8.8-5.6-15.4-5.6-2.4 0-5.1 0.3-7.8 0.8l-0.4 0.1-0.3-0.2c-6.4-3.4-13.2-5.8-20.4-7l-0.3-0.1c-0.8-0.1-1.6-0.3-2.7-0.4-0.1 0-0.9-0.1-0.9-0.1-0.7-0.1-1.4-0.1-2.1-0.2-0.4 0-0.9-0.1-1.2-0.1-0.7 0-1.3-0.1-2-0.1h-1.1-1c-1.9 0-3.9 0.1-6 0.3h-0.6c-1.7 0.2-3.4 0.4-5.3 0.8l-1.7 0.3c-1.2 0.2-2.5 0.6-4 1-1.1 0.3-2.3 0.7-3.8 1.2l-1.8 0.6c-8.9 3.3-16.8 8.3-23.5 14.8-5.3 5.1-9.7 11.2-13 17.9-0.4 0.7-0.7 1.4-1.2 2.4-0.4 1-0.9 1.9-1.2 2.8-0.5 1.4-1 2.6-1.4 3.7l-0.1 0.3-0.3 0.2c-8.8 5.7-13.6 12.4-13.6 19.5v0.7 0.3c-0.1 7 4.4 13.9 13.1 19.8l0.3 0.2 0.1 0.3c1.1 3.7 2.5 7.3 4.3 10.7-0.7 3.2-1 6.2-0.9 8.9-0.1 6.3 1.7 11.5 5.2 15.1 3.6 3.7 8.8 5.6 15.5 5.6 2.3 0 4.9-0.3 7.7-0.8l0.4-0.1 0.3 0.2c1.7 0.9 3.5 1.8 5.2 2.5l0.2 0.1c1.9 0.8 3.8 1.5 5.9 2.2l0.2 0.1c1.9 0.6 4 1.1 6.1 1.6 0.1 0 0.2 0 0.3 0.1 2 0.4 4 0.7 6.1 1h0.3s0.1 0 0.2 0c2 0.2 4 0.3 6.1 0.4h0.4 1c1.9 0 3.9-0.1 6-0.3h0.6c1.6-0.2 3.3-0.4 5.3-0.8 0.5-0.1 1.1-0.2 1.6-0.3 1.4-0.3 2.9-0.7 4.1-1 1.1-0.3 2.2-0.7 3.6-1.1l0.3-0.1c0.6-0.2 1.1-0.4 1.7-0.6 8.9-3.3 16.8-8.3 23.5-14.8 7-6.8 12.3-14.8 15.8-24 0 0 0.3-0.9 0.4-1l0.7-2.1 0.3-0.2c8.3-5.6 13-12.4 13.1-19.5zm-144.6-16.3 2-1.7-0.4 1.7c-1 4.4-1.5 8.9-1.5 13.4v0.8 0.2c-0.1 4.5 0.3 9 1.2 13.5l0.3 1.7-2-1.8c-4.9-4.3-7.5-9.1-7.7-13.9 0.2-4.8 2.9-9.5 8.1-13.9zm134.1 29.5-2 1.7 0.4-1.7c0-0.2 0.1-0.4 0.1-0.6s0.1-0.4 0.1-0.6c0.4-1.9 0.6-3.6 0.8-5.2v-0.3-0.3c0.2-2.1 0.4-4.2 0.4-6.2v-1.6c0-1.8-0.1-3.7-0.2-5.8v-0.4c-0.2-1.8-0.4-3.7-0.8-5.8 0-0.3-0.1-0.5-0.1-0.7l-0.3-1.8 1.9 1.7c4.9 4.4 7.5 9 7.7 13.7-0.1 4.8-2.9 9.7-8 13.9zm-7.7 10.1c-9.2 21.4-29.2 36.3-52.3 38.8h-0.2-0.3c-2.1 0.2-4.3 0.3-6.6 0.3-0.9 0-1.7-0.1-2.5-0.1-0.3 0-0.7 0-1-0.1h-0.8c-0.8 0-1.7-0.1-2.5-0.2s-1.6-0.2-2.3-0.3l-0.6-0.1-0.8-0.1c-0.9-0.1-1.7-0.2-2.6-0.4-0.6-0.1-1.1-0.3-1.7-0.4-0.3-0.1-0.6-0.2-1-0.3l-0.9-0.2c-0.8-0.2-1.7-0.4-2.6-0.7-0.5-0.2-1.1-0.4-1.6-0.6-0.3-0.1-0.6-0.2-0.9-0.3l-0.9-0.3c-0.8-0.3-1.7-0.6-2.5-1-0.1 0-0.2-0.1-0.3-0.2l-0.2-0.1-1.1-0.5 1.2-0.4c4.9-1.5 10.1-3.7 15.4-6.5 6.7-3.5 13.6-8 20.3-13.3 0.8-0.6 1.6-1.3 2.4-2l1.2-1h0.3c17.2-1.2 32.4-4.8 44-10.5l1.9-0.9-0.5 1.4zm-97.5 32h-1.8c-6 0-10.7-1.6-13.9-4.9-2.9-3-4.4-7.3-4.5-12.7 0-0.7 0-1.4 0.1-2.1l0.3-3 1.6 2.5c1.1 1.6 2.2 3.3 3.6 5 0.1 0.1 0.1 0.2 0.2 0.3 0 0.1 0.1 0.1 0.1 0.2 1.5 1.9 3 3.5 4.5 5.1l0.2 0.1v0.1c1.5 1.5 3 2.9 4.5 4.2l0.2 0.2c1.6 1.3 3.2 2.6 5.1 3.9 0.1 0 0.3 0.3 0.3 0.3l0.9 0.7-1.4 0.1zm3.5-2.9c-0.6-0.3-1.1-0.7-1.7-1.1-1.3-0.9-2.6-1.9-3.8-2.9-0.2-0.1-0.3-0.3-0.5-0.4-0.2-0.2-0.5-0.4-0.7-0.6-1.6-1.3-3.2-2.8-4.8-4.4-1.5-1.5-2.9-3.2-4.3-4.9v-0.2c-3.9-5-7.1-10.5-9.4-16.3l-0.5-1.3 1.9 1c4.6 2.4 9.8 4.6 15.5 6.3 7.3 2.3 15.3 4 23.7 5 6.1 0.8 12.4 1.2 19 1.3h2.5c1.5 0 3 0 4.5-0.1h1.8l-1.1 0.9c-6.2 4.7-12.4 8.7-18.5 11.9-7.1 3.7-13.7 6.2-19.7 7.6l-0.4 0.1-0.3-0.2c-0.4-0.2-0.9-0.5-1.3-0.8-0.2-0.2-0.5-0.3-0.8-0.5-0.6-0.1-0.9-0.3-1.1-0.4zm-28.5-66.7c0.2-0.8 0.4-1.5 0.6-2.3 0.1-0.3 0.2-0.6 0.3-1s0.2-0.7 0.3-1.1c0.2-0.7 0.4-1.4 0.6-2 0.1-0.2 0.2-0.5 0.3-0.7s0.1-0.3 0.2-0.5c8.1-23.6 29.4-40.6 54.1-43.3 0.1 0 0.5-0.1 0.5-0.1 2.1-0.2 4.3-0.3 6.5-0.3 0.7 0 1.4 0 2.1 0.1 0.4 0 0.8 0 1.1 0.1h0.4c1.1 0.1 2.3 0.1 3.4 0.2 0.5 0 0.9 0.1 1.4 0.2 0.3 0 0.6 0.1 0.9 0.1 1.4 0.2 2.8 0.4 4.2 0.7 0.3 0.1 0.6 0.1 0.9 0.2 0.2 0 0.3 0.1 0.5 0.1 1.4 0.3 3.2 0.8 5 1.4l0.2 0.1s0.1 0 0.2 0.1c15.7 5.2 28.7 16.2 36.6 30.9-1.5 5.8-4.1 12.1-7.7 18.7l-0.4 0.8-0.8-0.4c-1.8-0.7-3.5-1.1-5.2-1.1-1.1 0-2.2 0.1-3.3 0.4-3.4 0.9-6.3 3-8.1 6.1-1.3 2.2-1.9 4.6-1.9 7.1-0.1 1.3 0.1 2.6 0.4 3.9 0.5 2.1 1.6 4.1 3.1 5.7l0.2 0.2-0.1 0.2c-3.4 4-6.9 7.7-10.3 11-2.9 2.8-6 5.6-9.7 8.7l-0.3 0.2h-0.3c-3.6 0.2-7.2 0.3-10.7 0.3h-2.2c-6.4-0.1-12.7-0.5-18.7-1.3-8.3-1-16.1-2.7-23.3-4.9-7.5-2.3-14-5.2-19.3-8.5l-0.3-0.2-0.1-0.4c-1.6-5.7-2.3-11.6-2.3-17.5 0.1-3.7 0.5-7.3 1.1-10.9 0-0.2 0.1-0.4 0.1-0.6l-0.2-0.4zm101.4-43.9c0.7 0 1.4-0.1 2.1-0.1 5.9 0 10.5 1.6 13.6 4.8 2.9 2.9 4.4 7.3 4.5 12.7 0 0.7 0 1.4-0.1 2.1l-0.2 3-1.6-2.5c-0.2-0.2-0.3-0.5-0.5-0.7s-0.3-0.4-0.5-0.7c-0.7-1.1-1.4-2-2.1-2.9-0.6-0.8-1.2-1.6-1.7-2.1-0.8-0.9-1.6-1.9-2.7-3.1-0.1-0.2-0.3-0.3-0.4-0.5s-0.3-0.3-0.4-0.5c-3.2-3.3-6.6-6.2-10.3-8.7l-1.1-0.8h1.4zm7.1 68.6c-0.8 0.2-1.7 0.3-2.6 0.3-4.9 0-9.4-3.4-10.6-8.2-0.2-0.7-0.3-1.4-0.3-2.1 0.2-4.7 3.4-8.8 8.1-10 0.9-0.2 1.8-0.3 2.7-0.3 5 0 9.3 3.4 10.5 8.2 0.2 0.7 0.3 1.4 0.3 2.1-0.2 4.7-3.4 8.8-8.1 10zm15.9 6.9c-10.1 6-24.7 10.3-41.2 12.2l-1.9 0.2 1.1-1c1.8-1.6 3.5-3.1 5.1-4.7 3.5-3.4 7.1-7.2 10.6-11.3l0.5-0.6 0.7 0.4c2 1.1 4.2 1.7 6.5 1.7 1 0 2.2-0.1 3.3-0.4 3.4-0.9 6.3-3 8.1-6.1 1.3-2.2 1.9-4.6 1.9-7.1 0.1-1.3-0.1-2.6-0.4-3.9-0.6-2.5-2.1-4.9-4.1-6.7l-0.2-0.2c2.9-5.2 5.2-10.2 6.7-14.9l0.9-2.6 1 2.5c1.6 3.8 2.7 7.8 3.5 11.8l0.1 0.3c0.3 1.6 0.6 3.4 0.8 5.5 0 0.1 0 0.2 0.1 0.4 0 0.2 0.1 0.4 0.1 0.6 0.2 1.9 0.2 3.8 0.2 5.8-0.1 5.9-1 11.8-2.8 17.6l-0.1 0.4-0.5 0.1z"/>
</g>
<g fill="#010101">
	<path d="m312.1 7.2-6.9-6.9c-0.4-0.4-1-0.4-1.4 0-0.3 0.3-0.4 0.8-0.1 1.2-0.2 0.4-0.2 0.9 0.1 1.2l6.9 6.9c0.4 0.4 1 0.4 1.4 0 0.3-0.3 0.4-0.8 0.1-1.2 0.2-0.4 0.2-0.9-0.1-1.2z"/>
	<path d="m311.1 21.9-6.9-6.9c-0.4-0.4-1-0.4-1.4 0-0.3 0.3-0.4 0.8-0.1 1.2-0.2 0.4-0.2 0.9 0.1 1.2l6.9 6.9c0.4 0.4 1 0.4 1.4 0 0.3-0.3 0.4-0.8 0.1-1.2 0.3-0.4 0.2-0.9-0.1-1.2z"/>
	<path d="m332.4 15.5 6.9 6.9c0.4 0.4 1 0.4 1.4 0 0.3-0.3 0.4-0.8 0.1-1.2 0.2-0.4 0.2-0.9-0.1-1.2l-6.9-6.9c-0.4-0.4-1-0.4-1.4 0-0.3 0.3-0.4 0.8-0.1 1.2-0.3 0.4-0.3 0.9 0.1 1.2z"/>
	<path d="m406.4 101.2-87.3-87.3c-0.4-0.4-1-0.4-1.4 0-0.3 0.3-0.4 0.8-0.1 1.2-0.2 0.4-0.2 0.9 0.1 1.2l87.4 87.4 0.3-0.3c0.1-0.2 0.3-0.3 0.5-0.5 0.1-0.1 0.1-0.2 0.2-0.3s0.3-0.2 0.4-0.4l-0.5-0.5 0.1-0.1c0.1-0.2 0.2-0.3 0.3-0.4z"/>
	<path d="m318.7 29.1c-0.4-0.4-1-0.4-1.4 0-0.3 0.3-0.4 0.8-0.1 1.2-0.2 0.4-0.2 0.9 0.1 1.2l86 86 1.4-1.4-0.5-0.5 0.5-0.5-86-86z"/>
	<path d="m452.7 128.9c-2.2-1.7-4.5-3.2-6.6-4.5l-8.3-18-5.8 10.9c-0.3-0.1-0.6-0.2-0.6-0.2l-0.7-0.3-9.6 9.6 0.3 0.7-0.3 0.3 0.2 0.6-10.7 5.5 1.1 0.5-1.1 0.5 17.5 7.6c1.4 2.4 3.1 5 4.9 7.4 10.1 13.5 21.7 18.6 33.5 14.7l0.6-0.2 0.2-0.6c1-3 1.4-5.9 1.3-8.8-0.1-8.9-5.4-17.7-15.9-25.7zm-15.1-15.9 4 8.7-1.2-0.5c-2.2-1.2-4.2-2.1-5.8-2.8l3-5.4zm-20.2 20.8 5.1-2.6c0.7 1.6 1.6 3.7 2.9 6.1l-8-3.5zm47.7 27.4c-16.3 4.9-28.6-10.2-35.4-22.1l-5.1-10.2c-0.2-0.4-0.3-0.8-0.5-1.1l6.8-6.8 8 3.4c10.4 5.4 26.6 16.2 27 30.9 0.2 1.8-0.1 3.8-0.8 5.9z"/>
	<path d="m344.5 27.3 73.3 73.3c0.2-0.2 0.4-0.3 0.6-0.5 0.1 0 0.1-0.1 0.2-0.2 0 0 0.1 0 0.1-0.1 0.2-0.2 0.5-0.4 0.7-0.6l-0.5-0.5c0.2-0.2 0.4-0.3 0.5-0.5l-73.5-73.5c-0.4-0.4-1-0.4-1.4 0-0.3 0.3-0.4 0.8-0.1 1.2-0.3 0.6-0.3 1.1 0.1 1.4z"/>
	<path d="m418.7 121.2 0.2 0.2c1.5 1.5 3.8 1.5 5.3 0 0.9-0.9 1.2-2 1-3.1 0.1-1.1-0.2-2.3-1-3.1l-13.9-8.7 1 1.6-1-0.6 8.4 13.7zm3.8-3.2c0.1 0.1 0.1 0.2 0.2 0.3-0.1 0.1-0.1 0.3-0.3 0.4-0.5 0.5-1.2 0.5-1.7 0.1l-1.8-3 3.6 2.2z"/>
	<path d="m456.9 143.3c-2.6-2.6-6.8-2.6-9.4 0-1.4 1.4-2.1 3.3-1.9 5.2-0.1 1.9 0.5 3.8 1.9 5.2 2.6 2.6 6.8 2.6 9.4 0 1.4-1.4 2.1-3.3 1.9-5.2 0.1-1.9-0.5-3.8-1.9-5.2zm-1.8 7.6c-1.6 1.6-4.3 1.6-5.9 0-0.7-0.7-1.1-1.5-1.2-2.4 0.1-0.9 0.5-1.8 1.2-2.4 1.6-1.6 4.3-1.6 5.9 0 0.7 0.7 1.1 1.5 1.2 2.4-0.1 0.9-0.5 1.7-1.2 2.4z"/>
</g>
</svg>
